<?xml version="1.0" standalone="no"?>
<!DOCTYPE svg PUBLIC "-//W3C//DTD SVG 1.1//EN" "http://www.w3.org/Graphics/SVG/1.1/DTD/svg11.dtd" >
<!--
2013-9-30: Created.
-->
<svg>
<metadata>
Created by iconfont
</metadata>
<defs>

<font id="mtapp-font" horiz-adv-x="1024" >
  <font-face
    font-family="mtapp-font"
    font-weight="500"
    font-stretch="normal"
    units-per-em="1024"
    ascent="896"
    descent="-128"
  />
    <missing-glyph />
    
    <glyph glyph-name="x" unicode="x" horiz-adv-x="1001"
d="M281 543q-27 -1 -53 -1h-83q-18 0 -36.5 -6t-32.5 -18.5t-23 -32t-9 -45.5v-76h912v41q0 16 -0.5 30t-0.5 18q0 13 -5 29t-17 29.5t-31.5 22.5t-49.5 9h-133v-97h-438v97zM955 310v-52q0 -23 0.5 -52t0.5 -58t-10.5 -47.5t-26 -30t-33 -16t-31.5 -4.5q-14 -1 -29.5 -0.5
t-29.5 0.5h-32l-45 128h-439l-44 -128h-29h-34q-20 0 -45 1q-25 0 -41 9.5t-25.5 23t-13.5 29.5t-4 30v167h911zM163 247q-12 0 -21 -8.5t-9 -21.5t9 -21.5t21 -8.5q13 0 22 8.5t9 21.5t-9 21.5t-22 8.5zM316 123q-8 -26 -14 -48q-5 -19 -10.5 -37t-7.5 -25t-3 -15t1 -14.5
t9.5 -10.5t21.5 -4h37h67h81h80h64h36q23 0 34 12t2 38q-5 13 -9.5 30.5t-9.5 34.5q-5 19 -11 39h-368zM336 498v228q0 11 2.5 23t10 21.5t20.5 15.5t34 6h188q31 0 51.5 -14.5t20.5 -52.5v-227h-327z" />
    

    
    <glyph glyph-name="shoucang" unicode="&#58918;" d="M874.372 541.118c-147.068 3.547-245.203 75.186-294.451 214.898-49.247 139.719-98.243 139.636-147.035-0.24-48.806-139.876-146.71-211.841-293.763-215.884-147.042-4.035-162.105-51.052-45.22-141.036 116.91-89.991 154.55-206.091 112.925-348.31-41.626-142.213-1.923-171.186 119.106-86.918 121.027 84.258 242.213 84.458 363.514 0.58 121.327-83.82 160.938-54.731 118.816 87.359-42.096 142.055-4.839 258.286 111.74 348.669 116.637 90.372 101.409 137.349-45.634 140.886zM777.147 376.734c-67.838-54.142-81.609-115.344-64.873-216.256 29.488-109.396-2.81-103.729-83.705-50.853-80.862 52.842-161.65 52.708-242.345-0.397-84.929-60.191-92.992-27.78-79.388 54.798 12.179 95.337-2.999 154.368-75.262 219.596-77.955 56.736-67.897 86.372 30.141 88.907 98.029 2.544 163.281 47.904 195.809 136.099 32.535 88.178 65.195 88.242 98.012 0.149 32.851-88.069 98.277-133.232 196.332-135.454 98.019-2.245 97.342-33.935 25.278-96.587zM636.583 355.109h-97.308v118.94c0 17.903-14.541 32.444-32.444 32.444h-21.607c-17.93 0-32.444-14.531-32.444-32.444v-205.436h183.805c17.913 0 32.428 14.516 32.428 32.436v21.625c0 17.903-14.516 32.436-32.428 32.436z"  horiz-adv-x="1024" />

    
    <glyph glyph-name="star" unicode="&#58897;" d="M569.499 801.409l110.453-223.835 273.268-40.688c49.604-7.397 65.19-42.313 28.735-80.583l-199.268-195.12 48.855-284.62c6.563-41.2-33.247-65.147-68.226-41.2l-249.728 130.273-254.194-133.589c-34.038-17.382-69.038-6.2-62.689 41.458l47.765 287.656-205.362 199.439c-39.661 36.582-19.050 69.98 26.983 76.094l281.199 40.859c0 0 57.706 117.039 110.325 223.644 38.315 71.581 80.327 70.533 111.885 0.212z"  horiz-adv-x="1024" />

    
    <glyph glyph-name="gouwuche" unicode="&#58906;" d="M889.297 629.57c0 19.159-15.669 34.691-34.991 34.691h-587.956c-4.289 0-8.393-0.766-12.188-2.167l-31.491 96.784c-5.501 16.408-22.176 26.019-38.859 23.294-0.485 0.017-0.964 0.037-1.453 0.037h-97.995c-19.327 0-34.996-15.535-34.996-34.691 0-19.162 15.669-34.691 34.996-34.691h79.748l140.010-430.307-102.321-125.321c-12.165-14.894-9.846-36.738 5.183-48.786 9.458-7.588 21.692-9.485 32.491-6.135h593.826c19.331 0 35.001 15.532 35.001 34.691 0 19.156-15.67 34.691-35.001 34.691l-529.655 0.001 56.651 69.379h382.013c19.096 0 34.609 15.158 34.977 33.998 0.037 0.1 0.079 0.207 0.116 0.308l109.928 329.343c1.945 5.832 2.236 11.806 1.144 17.43 0.53 2.404 0.821 4.891 0.821 7.451v0zM715.387 310.421h-346.797l-92.554 284.458h534.303l-94.952-284.458zM476.334 379.798c19.327 0 34.995 15.535 34.995 34.692v90.194c0 19.159-15.669 34.691-34.995 34.691s-34.996-15.532-34.996-34.691v-90.194c0-19.155 15.67-34.692 34.996-34.692v0zM630.321 379.798c19.331 0 34.996 15.535 34.996 34.692v90.194c0 19.159-15.666 34.691-34.996 34.691-19.327 0-34.995-15.532-34.995-34.691v-90.194c0-19.155 15.668-34.692 34.995-34.692v0zM315.348 53.712c-30.929 0-55.996-24.849-55.996-55.507 0-30.654 25.067-55.503 55.996-55.503 30.928 0 55.995 24.849 55.995 55.503-0.001 30.658-25.068 55.507-55.995 55.507v0zM749.317 53.712c-30.933 0-56.002-24.849-56.002-55.507 0-30.654 25.068-55.503 56.002-55.503 30.923 0 55.991 24.849 55.991 55.503 0 30.658-25.068 55.507-55.991 55.507v0zM749.317 53.712z"  horiz-adv-x="1024" />

    
    <glyph glyph-name="saomajishidaozhangshoukuan" unicode="&#59114;" d="M307.292 461.503v161.163h-64.464v-161.163h64.464zM339.525 461.503h32.232v161.163h-32.232v-161.163zM135.387 354.063h752.088c23.736 0 42.975 19.238 42.975 42.976 0 23.732-19.24 42.974-42.975 42.974h-752.088c-23.737 0-42.976-19.242-42.976-42.974-0.001-23.737 19.239-42.976 42.976-42.976zM726.313 622.666v-161.163h64.464v161.163h-64.464zM629.616 622.666h-42.978v-161.163h42.978v161.163zM532.918 622.666h-53.721v-161.163h53.721v161.163zM790.778 149.921v182.648h-64.464v-182.648h64.464zM436.222 622.666h-21.488v-161.163h21.488v161.163zM135.387 547.455c23.737 0 42.976 19.242 42.976 42.976v128.93h128.929c23.737 0 42.976 19.241 42.976 42.978 0 23.734-19.24 42.976-42.976 42.976h-171.906c-23.737 0-42.976-19.242-42.976-42.976v-171.907c0-23.735 19.24-42.977 42.977-42.977zM683.336 622.666h-21.488v-161.163h21.488v161.163zM586.638 149.921h42.978v182.648h-42.978v-182.648zM683.336 332.571h-21.488v-182.648h21.488v182.648zM887.473 235.875c-23.736 0-42.974-19.241-42.974-42.978v-128.927h-128.93c-23.735 0-42.975-19.243-42.975-42.976 0-23.737 19.24-42.98 42.975-42.98h171.905c23.737 0 42.978 19.243 42.978 42.98v171.903c-0.001 23.737-19.242 42.978-42.979 42.978zM887.473 805.314h-171.904c-23.735 0-42.975-19.242-42.975-42.976 0-23.737 19.24-42.978 42.975-42.978h128.931v-128.929c0-23.734 19.239-42.976 42.974-42.976 23.737 0 42.978 19.242 42.978 42.976v171.906c-0.001 23.735-19.242 42.977-42.979 42.977zM339.525 149.921h32.232v182.648h-32.232v-182.648zM307.292 149.921v182.648h-64.464v-182.648h64.464zM307.292 63.97h-128.929v128.927c0 23.737-19.24 42.978-42.976 42.978s-42.976-19.241-42.976-42.978v-171.904c0-23.737 19.24-42.98 42.976-42.98h171.906c23.737 0 42.976 19.243 42.976 42.98 0 23.734-19.24 42.977-42.977 42.977zM479.198 149.921h53.721v182.648h-53.721v-182.648zM414.733 149.921h21.488v182.648h-21.488v-182.648z"  horiz-adv-x="1024" />

    
    <glyph glyph-name="jingxuan" unicode="&#58912;" d="M787.35 296.172c58.45 59.7 94.275 138.225 94.275 224.601 0 186.4-165.475 337.5-369.625 337.5-204.125 0-369.625-151.101-369.625-337.5 0-86.377 35.825-164.901 94.275-224.601-58.524-93.1-124.65-198.3-124.65-198.3l162.175-21.525 101.075-118.075c0 0 75.65 120.375 136.75 217.575 61.1-97.2 136.75-217.575 136.75-217.575l101.075 118.075 162.175 21.525c0 0-66.126 105.2-124.65 198.3zM360.225 42.922l-48.849 94.225-110.451-6.7c0 0 38.025 62.7 77.95 128.525 48.025-35.7 106.1-60.35 169.7-70.401-43.449-71.65-88.35-145.65-88.35-145.65zM203.975 520.772c0 155.325 137.901 281.251 308.001 281.251 170.124 0 308.001-125.925 308.001-281.251 0-155.325-137.901-281.251-308.001-281.251-170.076 0-308.001 125.925-308.001 281.251zM712.601 137.147l-48.849-94.225c0 0-44.875 74.001-88.35 145.65 63.6 10.075 121.675 34.7 169.7 70.401 39.925-65.85 77.95-128.525 77.95-128.525l-110.451 6.7zM512 717.648c-119.075 0-215.6-88.15-215.6-196.875s96.525-196.875 215.6-196.875 215.6 88.15 215.6 196.875c0 108.75-96.525 196.875-215.6 196.875zM512 380.147c-85.050 0-154 62.951-154 140.625s68.95 140.625 154 140.625c85.050 0 154-62.951 154-140.625s-68.95-140.625-154-140.625z"  horiz-adv-x="1024" />

    
    <glyph glyph-name="ad80" unicode="&#58910;" d="M903.342 598.102c-16.717 0-30.375 13.605-30.375 30.375 0 10.283-8.279 18.668-18.51 18.668h-684.967c-10.125 0-18.51-8.332-18.51-18.668 0-16.769-13.606-30.375-30.375-30.375-16.875 0-30.48 13.606-30.48 30.375 0 43.77 35.648 79.523 79.365 79.523h684.967c43.77 0 79.418-35.753 79.418-79.523 0-16.769-13.658-30.375-30.375-30.375h-0.158zM854.457 59.947h-684.967c-43.717 0-79.365 35.543-79.365 79.418 0 16.769 13.606 30.375 30.48 30.375 16.769 0 30.375-13.605 30.375-30.375 0-10.178 8.332-18.563 18.51-18.563h684.967c10.178 0 18.51 8.332 18.51 18.563 0 16.769 13.658 30.375 30.375 30.375 16.875 0 30.533-13.605 30.533-30.375 0-43.875-35.648-79.418-79.418-79.418v0zM196.49 254.221v32.643h47.935v191.057l-53.315-18.035-2.637 34.013 74.408 25.523h17.613v-232.559h38.707v-32.643h-122.713zM414.441 400.875c-7.911 10.178-11.971 24.205-11.971 40.184 0 44.93 34.805 78.363 85.482 78.363 50.098 0 85.799-30.481 85.799-80.631 0-37.388-18.035-64.81-59.379-100.406-14.502-12.234-34.857-31.641-52.787-51.521h116.227v-32.643h-177.082v17.719c27 29.953 63.387 66.445 92.075 92.917 31.219 28.213 44.033 49.253 44.033 73.565 0 28.951-19.406 47.461-49.412 47.461-29.848 0-47.935-18.826-47.935-42.24 0-10.178 3.112-19.881 9.703-29.847l-34.752-12.92zM690.559 320.349c14.185-24.627 32.063-38.338 55.951-38.338 30.744 0 51.943 19.881 51.943 48.938 0 28.529-16.822 43.664-44.086 43.664h-18.878v32.432h18.457c22.992 0 37.494 12.34 37.494 38.813 0 24.627-17.614 39.973-43.664 39.973-22.359 0-40.026-13.184-53.683-40.869l-29.479 18.035c17.192 36.070 45.773 56.426 83.109 56.426 48.516 0 80.578-27.474 80.578-70.981 0-26.895-12.709-45.299-35.121-57.692 26.315-10.178 42.293-29.847 42.293-60.381 0-50.151-36.597-81.896-89.859-81.896-39.656 0-66.972 18.932-84.955 49.834l29.901 22.043zM690.559 320.349z"  horiz-adv-x="1024" />

    
    <glyph glyph-name="manzeng" unicode="&#58907;" d="M716.224 276.48h-167.488c-14.976 0-21.696-6.72-20.032-20.032v-20.032h204.992v17.472c0.064 15.104-5.824 22.592-17.472 22.592zM528.768 169.024c-1.664-9.984 4.096-14.976 17.472-14.976h169.984c11.648 0 17.472 4.992 17.472 14.976v25.024h-204.928v-25.024zM501.248 523.968v-102.528c-1.664-16.64 4.096-24.128 17.472-22.464h80v145.024h-80c-13.376 0-19.136-6.72-17.472-20.032zM536.256 526.464c9.984 3.328 18.304-0.832 25.024-12.48 6.656-14.976 15.808-38.336 27.52-70.016 1.6-14.976-3.392-25.024-14.976-30.016-15.104-1.664-23.424 4.16-25.088 17.536-1.664 3.264-6.656 14.144-14.976 32.512-3.392 11.648-6.72 23.296-9.984 34.944-3.392 11.712 0.768 20.864 12.48 27.52zM896.064 896h-768c-70.72 0-128-57.344-128-128v-768c0-70.656 57.28-128 128-128h768c70.656 0 128 57.344 128 128l0 768c0 70.656-57.344 128-128 128zM243.776 601.472c-3.392 30.016 9.984 44.16 40 42.496h102.528c23.296 0 35.008-14.208 35.008-42.496v-327.488c-1.728-14.976-8.448-22.464-20.032-22.464-13.376 0-20.032 7.488-20.032 22.528v304.896c-1.664 15.040-9.216 23.36-22.528 25.024h-52.48c-16.704 0-24.192-8.32-22.528-25.024v-289.984c-1.664-16.704-9.152-24.96-22.464-24.96-11.712 1.6-17.472 10.752-17.472 27.52v309.952zM253.76 108.992c-14.976-11.712-27.52-12.48-37.504-2.496-8.384 13.312-5.888 26.624 7.488 40 60.032 41.6 87.488 123.264 82.496 244.992v157.504c0 13.312 6.656 20.032 20.032 20.032 11.584-1.728 18.304-9.216 19.968-22.528v-129.984c0-51.712-1.664-89.984-4.992-114.944-1.664-28.352-5.888-53.376-12.48-75.008-13.376-43.456-38.4-82.56-75.008-117.568zM438.72 118.976c-11.712-6.656-22.528-3.392-32.512 9.984-11.712 16.64-28.352 38.272-49.984 65.024-6.656 8.256-10.88 14.976-12.48 20.032-9.984 11.648-9.984 22.528 0 32.512 11.648 6.656 23.296 4.096 35.008-7.488 16.64-18.368 38.336-45.888 65.024-82.496 8.256-15.040 6.592-27.52-5.056-37.568zM783.744 156.48c1.6-35.008-12.48-50.88-42.496-47.488h-214.976c-35.008-3.392-49.984 12.48-44.992 47.488l-0 124.992c-5.056 28.288 11.584 41.664 49.984 40h209.984c30.016 0 44.096-14.976 42.496-44.992v-120zM796.224 401.472c1.6-33.344-14.208-48.32-47.488-44.992h-252.48c-31.68-3.328-45.888 12.48-42.496 47.488v145.024c-3.392 28.288 12.48 41.664 47.488 40h40c-3.392 3.264-7.488 9.984-12.48 19.968-6.656 9.984-10.88 17.472-12.48 22.528-6.72 11.648-4.224 21.632 7.488 29.952 11.648 4.992 21.632 1.664 30.016-9.984 0-1.664 0.832-4.992 2.496-9.984 13.312-21.696 22.528-35.008 27.52-40 1.536-4.992 2.432-9.216 2.432-12.48h72.512c13.312 21.632 25.792 42.496 37.504 62.528 6.656 9.984 15.808 12.48 27.52 7.488 9.984-6.656 12.48-15.872 7.488-27.52-13.376-20.032-21.696-34.176-25.024-42.496h35.008c40 1.664 58.304-9.216 54.976-32.512v-155.008zM733.76 544h-87.488v-145.024h84.992c13.312-3.328 19.136 3.328 17.472 20.032l0 104.96c0 14.976-4.992 21.632-14.976 20.032zM718.72 464c-6.656-20.032-9.984-32.512-9.984-37.504-6.656-14.976-16.704-20.864-30.016-17.472-9.984 4.992-12.48 15.808-7.488 32.512 0 1.664 2.496 9.152 7.488 22.528 6.656 23.296 10.816 37.504 12.48 42.496 4.992 11.648 13.312 16.64 25.024 14.976 11.648-4.992 15.808-13.312 12.48-25.024-1.664-6.72-4.928-17.536-9.984-32.512z"  horiz-adv-x="1025" />

    
    <glyph glyph-name="gouwuchexiao" unicode="&#58884;" d="M873.198 343.666l143.305 320.504-0.088 0.030c2.703 6.029 4.301 12.653 4.301 19.7 0 26.542-21.386 48.073-47.769 48.073h-707.382l-27.813 79.978-0.181-0.072c-6.524 18.741-24.067 32.265-44.908 32.265h-143.317c-26.383 0-47.769-21.531-47.769-48.073 0-26.558 21.386-48.073 47.769-48.073h109.425l183.918-528.82h-86.333c-52.766 0-95.542-43.047-95.542-96.147 0-53.098 42.778-96.146 95.542-96.146 52.766 0 95.544 43.047 95.544 96.146h445.872c0-53.098 42.8-96.146 95.566-96.146 52.764 0 95.536 43.047 95.536 96.146 0 53.1-42.77 96.147-95.536 96.147h-449.426l-23.84 68.572 412.741 27.689c18.015 1.207 33.297 12.452 40.387 28.228zM387.316 381.905l-88.308 253.92h600.051l-101.231-226.375-410.512-27.546z"  horiz-adv-x="1024" />

    
    <glyph glyph-name="biaoqing" unicode="&#58943;" d="M512-103.2 512-103.2C734.68121-103.2 915.2 77.31879 915.2 300 915.2 522.681211 734.68121 703.2 512 703.2 289.318789 703.2 108.8 522.681211 108.8 300 108.8 77.31879 289.318789-103.2 512-103.2L512-103.2ZM512-180C246.90332-180 32 34.903322 32 300 32 565.09668 246.90332 780 512 780 777.096678 780 992 565.09668 992 300 992 34.903322 777.096678-180 512-180ZM300.8 204C332.6116 204 358.4 229.7884 358.4 261.6 358.4 293.4116 332.6116 319.2 300.8 319.2 268.988398 319.2 243.2 293.4116 243.2 261.6 243.2 229.7884 268.988398 204 300.8 204ZM723.2 204C755.0116 204 780.8 229.7884 780.8 261.6 780.8 293.4116 755.0116 319.2 723.2 319.2 691.3884 319.2 665.6 293.4116 665.6 261.6 665.6 229.7884 691.3884 204 723.2 204ZM408.156659 16.091914C437.233942 1.473104 471.802576-7.2 511.515386-7.2 551.177818-7.2 585.861293 1.447158 615.185542 16.005392 633.568723 25.131853 646.517014 34.732365 654.137555 42.23345 669.251683 57.110653 669.44375 81.423427 654.56655 96.537555 647.008842 104.215626 580.035747 115.424438 511.515389 115.365235 445.154771 115.307898 377.186899 104.223059 369.774451 96.879658 354.708314 81.953859 354.594544 57.640589 369.520342 42.574451 377.05151 34.97247 389.875053 25.28312 408.156659 16.091914Z"  horiz-adv-x="1024" />

    
    <glyph glyph-name="dianhua" unicode="&#58926;" d="M524.158 284.606c-0.8 0.496-91.445 149.315-91.749 151.234-18.736 39.981-33.859 80.849-2.352 99.020l-130.832 215.334c-33.865-24.747-129.786-159.033 49.703-463.306 189.086-320.676 369.025-307.335 405.11-285.625l-127.505 210.227c-30.122-17.319-55.513 11.177-102.378 73.113zM841.53 82.89l0.042 0.135c0 0-99.559 163.774-99.616 163.854-7.868 12.981-24.855 17.033-38.083 9.499l-60.985-35.203 127.826-210.791c0 0 61.011 35.045 60.974 35.119l0.13 0.052c13.974 8.066 17.204 24.868 9.713 37.337zM507.718 579.503l0.020 0.115c13.989 8.097 17.298 24.842 9.801 37.215l0.048 0.172c0 0-102.414 168.532-102.466 168.574-7.884 13.042-24.899 17.047-38.071 9.524l-61.001-35.223 130.677-215.454c0 0 60.964 34.999 60.991 35.076z"  horiz-adv-x="1024" />

    
    <glyph glyph-name="map" unicode="&#58936;" d="M575.31 706.401c0 32.683-28.302 59.054-63.216 59.054-34.947 0-63.173-26.371-63.173-59.054 0-32.678 28.226-59.133 63.173-59.133 34.914 0.001 63.216 26.463 63.216 59.133v0 0 0zM813.133 363.267c0 0-21.521-57.752 0-64.885 26.122-8.645 92.962 21.566 92.962 21.566v-281.366c0 0-236.272-90.104-255.611-86.454-19.388 3.575-255.651 97.328-278.877 86.454-23.253-10.775-255.603-64.796-255.603-64.796l-0 281.278c0 0 107.527 24.604 116.261 43.318 10.337 22.638 7.666 75.668-69.782 43.218-77.451-32.436-116.166-64.967-116.166-64.967l0-346.157c0 0 23.259-57.752 69.688-43.228 46.485 14.352 255.617 86.537 255.617 86.537s247.847-82.977 278.862-86.537c30.966-3.746 324.283 79.943 325.305 108.106 3.168 95.101 3.829 371.472 0 389.571-3.836 18-116.173-7.134-162.657-21.659v0 0 0zM512.384 295.958c0 0 231.959 214.281 231.959 401.7 0 187.594-231.959 187.594-231.959 187.594s-231.991 0-231.991-187.594c0-187.419 231.991-401.7 231.991-401.7v0 0 0zM349.797 724.499c1.58 6.23 4.044 12.129 6.63 18.113 0.897 2.034 1.422 4.298 2.428 6.229 2.665 5.506 6.232 10.44 9.827 15.616 1.739 2.421 3.16 5.099 5.016 7.527 2.836 3.552 6.273 6.629 9.384 9.865 3.643 3.72 7.162 7.52 11.288 11 1.856 1.454 3.884 2.671 5.741 3.966 6.106 4.767 12.455 9.226 19.532 13.027 0.201 0.159 0.448 0.318 0.733 0.401 16.987 9.3 36.519 16.173 58.207 19.739 10.866 1.773 22.113 2.83 33.525 2.83h0.325c11.722 0 23.092-1.049 34.131-2.83 5.948-1.046 11.365-2.835 16.947-4.289 4.849-1.375 9.992-2.346 14.552-3.967 4.691-1.698 8.948-3.879 13.434-5.899 5.34-2.271 10.715-4.528 15.655-7.364 2.222-1.371 4.209-2.746 6.308-4.209 31.263-19.574 53.831-47.724 61.518-80.402 2.022-8.252 3.077-16.581 3.077-24.991 0-133.883-165.754-321.385-165.754-321.385s-165.614 187.5-165.614 321.377c0 8.66 1.089 17.228 3.111 25.647v0 0 0zM349.797 724.499z"  horiz-adv-x="1024" />

    
    <glyph glyph-name="pinshouqi" unicode="&#59011;" d="M579.3125 414.98263889c0-11.53125-0.5625-27.84375-1.59375-48.84375l134.625 0L712.34375 552.79513889l-133.125 0L579.21875 414.98263889zM872 876.88888889L152 876.88888889C86 876.88888889 32 822.88888889 32 756.88888889l0-720c0-66 54-120 120-120l720 0c66 0 120 54 120 120L992 756.88888889C992 822.88888889 938 876.88888889 872 876.88888889zM520.25 759.13888889c27.28125-37.78125 53.53125-79.78125 78.75-126l-46.5-22.875c-24.1875 45.1875-50.625 87.1875-79.5 126L520.25 759.13888889zM319.4375 107.10763888999998c0-45.1875-22.875-67.6875-68.53125-67.6875L184.8125 39.420138889999976l-11.8125 55.125c27.28125-2.0625 46.6875-3.1875 58.3125-3.1875 19.96875 0 29.90625 10.21875 29.90625 30.75L261.21875 317.38888889c-28.875-12.09375-61.125-24.1875-96.84375-36.1875L150.125 337.82638889c35.71875 9.46875 72.75 21.75 111 37.03125L261.125 555.98263889 161.1875 555.98263889l0 54.375 100.03125 0 0 142.5 58.3125 0 0-142.5 80.34375 0 0-54.375-80.34375 0 0-155.90625c29.90625 15.1875 56.15625 29.4375 78.75 42.5625l0-57.46875c-29.4375-17.34375-55.6875-31.21875-78.75-41.71875L319.53125 107.10763888999998zM873.875 313.45138889L767.5625 313.45138889l0-277.96875-55.125 0L712.4375 313.45138889 573.03125 313.45138889c-6.28125-56.15625-17.8125-105.28125-34.6875-147.28125-25.21875-57.1875-66.1875-102.09375-122.8125-134.625l-31.5 48.84375c52.5 32.0625 88.96875 73.5 109.5 124.40625 10.5 30.46875 18.65625 66.65625 24.375 108.65625L416.28125 313.45138889l0 52.78125 106.3125 0c1.03125 22.03125 1.59375 38.34375 1.59375 48.84375l0 137.8125-93.75 0 0 52.78125 259.125 0c25.6875 46.6875 49.125 99 70.125 156.75l52.78125-18.9375c-17.8125-47.8125-39.375-93.75-64.59375-137.8125l110.25 0 0-52.78125-90.5625 0 0-186.65625L873.875 366.23263889 873.875 313.45138889z"  horiz-adv-x="1024" />

    
    <glyph glyph-name="shijian" unicode="&#58889;" d="M873.645282 660.567134C777.061062 757.055377 648.704467 810.219326 512.101023 810.219326c-136.558519 0-264.933492-53.163949-361.473807-149.670571C54.051165 564.016608 0.872921 435.640614 0.872921 299.1066c-0.024505-136.55954 53.109834-264.889587 149.680781-361.490144 96.522958-96.447402 224.911204-149.616456 361.45645-149.616456 136.603444 0 265.036615 53.202748 361.636151 149.720601C1072.937852 136.977436 1072.970525 461.22147 873.645282 660.567134L873.645282 660.567134 873.645282 660.567134 873.645282 660.567134zM826.529907-15.176277c-84.008208-83.974514-195.703654-130.261834-314.520777-130.261834-118.733398 0-230.400255 46.272004-314.360475 130.159731C113.698646 68.672651 67.470546 180.324193 67.495051 299.1066c0 118.768113 46.2475 230.429865 130.223035 314.350265C281.6926 697.393601 393.329848 743.605364 512.101023 743.605364c118.783428 0 230.43497-46.212785 314.428884-130.153605C999.8618 440.125993 999.8618 158.092311 826.529907-15.176277L826.529907-15.176277 826.529907-15.176277 826.529907-15.176277zM733.020005 173.851891 556.297276 276.021138 556.297276 554.661942c0 23.514293-19.083028 42.592217-42.610595 42.592217-23.509188 0-42.592217-19.072818-42.592217-42.592217l0-298.151643c0-15.802463 19.643573-29.051333 32.417665-36.377214 3.539907-5.313434 13.249891-10.139837 19.176963-13.54701l175.749688-106.48922c20.35523-11.746936 42.429873-4.761057 54.180894 15.592131C764.377842 136.065657 753.42935 162.088618 733.020005 173.851891L733.020005 173.851891 733.020005 173.851891 733.020005 173.851891zM733.020005 173.851891"  horiz-adv-x="1024" />

    
    <glyph glyph-name="daifahuo" unicode="&#58913;" d="M282.800128 179.791872 179.843072 179.791872c-11.978752 0-21.64736-9.701376-21.64736-21.676032 0-11.974656 9.670656-21.676032 21.64736-21.676032l102.957056 0c11.97056 0 21.643264 9.701376 21.643264 21.676032C304.443392 170.090496 294.770688 179.791872 282.800128 179.791872L282.800128 179.791872zM385.701888 284.049408 179.843072 284.049408c-11.978752 0-21.64736-9.701376-21.64736-21.671936 0-11.97056 9.670656-21.671936 21.64736-21.671936l205.860864 0c11.97056 0 21.639168 9.701376 21.639168 21.671936C407.343104 274.348032 397.672448 284.049408 385.701888 284.049408L385.701888 284.049408zM882.429952 795.648l-165.480448 0-0.028672 0L307.007488 795.648l-0.026624 0L141.494272 795.648c-64.724992 0-117.385216-52.660224-117.385216-117.385216L24.109056 87.28576c0-64.729088 52.660224-117.389312 117.385216-117.389312l740.933632 0c64.729088 0 117.389312 52.660224 117.389312 117.389312L999.817216 678.262784C999.817216 742.987776 947.15904 795.648 882.429952 795.648L882.429952 795.648zM337.44896 734.767104l349.0304 0 0-233.469952-20.324352 14.348288c-10.520576 7.426048-24.582144 7.426048-35.106816 0l-50.843648-35.8912-50.794496 35.516416c-5.240832 3.661824-11.339776 5.492736-17.446912 5.492736-6.098944 0-12.20608-1.830912-17.442816-5.492736l-50.7904-35.516416-50.847744 35.8912c-10.524672 7.426048-24.582144 7.426048-35.106816 0l-20.324352-14.348288L337.451008 734.767104 337.44896 734.767104zM938.93632 87.28576c0-31.158272-25.348096-56.508416-56.506368-56.508416L141.494272 30.777344c-31.154176 0-56.50432 25.346048-56.50432 56.508416L84.989952 678.262784c0 31.154176 25.350144 56.50432 56.50432 56.50432l135.071744 0L276.566016 442.55232c0-11.370496 6.33856-21.798912 16.4352-27.029504 10.092544-5.228544 22.265856-4.399104 31.557632 2.156544l50.763776 35.831808 50.765824-35.831808c10.48576-7.399424 24.48384-7.430144 34.996224-0.073728l50.876416 35.575808 50.876416-35.575808c10.51648-7.356416 24.51456-7.323648 34.996224 0.073728l50.765824 35.835904 50.765824-35.835904c5.23264-3.692544 11.380736-5.566464 17.557504-5.566464 4.784128 0 9.592832 1.1264 14.002176 3.40992 10.09664 5.23264 16.4352 15.654912 16.4352 27.029504L747.360256 734.767104l135.067648 0c31.156224 0 56.506368-25.350144 56.506368-56.50432L938.934272 87.28576 938.93632 87.28576zM938.93632 87.28576"  horiz-adv-x="1024" />

    
    <glyph glyph-name="tuikuan" unicode="&#58914;" d="M539.773 867.988c-265.903 0-482.225-216.332-482.225-482.241 0-19.115 1.157-38.425 3.401-57.459l-34.806-12.566c-10.649-3.828-18.176-12.671-20.116-23.649-2.269-12.524 2.727-25.67 13.196-34.529l101.020-82.35c6.359-5.359 13.459-8.185 20.543-8.185 14.266 0 25.473 10.913 28.431 27.445l26.229 125.985c1.989 11.076-1.052 22.745-8.135 31.21-8.595 10.288-22.335 14.164-34.709 9.728l-26.366-9.519c-0.91 11.293-1.375 22.631-1.375 33.89 0 228.795 186.132 414.927 414.911 414.927s414.911-186.132 414.911-414.927c0-228.797-186.132-414.929-414.911-414.929-100.314 0-197.143 36.286-272.625 102.172-14.018 12.218-35.267 10.772-47.494-3.229-12.226-14-10.781-35.258 3.221-47.485 87.759-76.591 200.299-118.77 316.898-118.77 265.903 0 482.225 216.331 482.225 482.242 0.002 265.91-216.32 482.24-482.223 482.24zM391.834 286.534c-9.235 0-16.172-2.087-20.772-6.196-4.618-4.142-6.917-11.552-6.917-22.219 0-19.425 9.712-29.136 29.137-29.136h114.381v-96.173c0-13.114 2.069-22.367 6.18-27.69 4.126-5.358 12.275-8.021 24.421-8.021 12.147 0 20.149 2.663 24.060 8.021 3.846 5.324 5.819 14.577 5.819 27.69l-0.001 96.172h115.828c19.441 0 29.153 9.449 29.153 28.398 0 19.425-9.712 29.155-29.153 29.155h-115.828v45.882h115.828c19.441 0 29.153 9.468 29.153 28.417 0 19.423-9.712 29.152-29.153 29.152h-84.503l105.638 177.028c5.341 9.236 8.020 17.124 8.020 23.681 0 6.573-3.911 12.243-11.668 17.124-7.297 4.864-14.692 7.28-22.218 7.28-7.527 0-14.94-6.081-22.203-18.208l-118.771-200.366-118.754 200.365c-6.803 11.635-14.461 17.47-22.958 17.47s-15.891-2.417-22.203-7.281c-6.311-4.354-9.483-10.189-9.483-17.486 0-7.28 2.186-14.807 6.557-22.58l105.638-177.028h-85.228c-9.235 0-16.17-2.087-20.772-6.195-4.618-4.142-6.917-11.553-6.917-22.218 0-19.442 9.712-29.155 29.137-29.155h114.381v-45.882l-115.828-0.001z"  horiz-adv-x="1024" />

    
    <glyph glyph-name="manjian" unicode="&#58917;" d="M470.723 346.925h53.382v-109.575h-53.382v109.575zM849.893 891.424h-675.789c-94.257 0-170.667-76.41-170.667-170.667v-673.515c0-94.258 76.41-170.667 170.667-170.667h675.788c94.258 0 170.667 76.409 170.667 170.667v673.515c0.001 94.256-76.409 170.667-170.666 170.667zM712.352 709.365c16.857-16.858 39.334-42.144 67.43-75.859-15.013-11.239-29.061-22.477-42.144-33.716-20.633 29.939-42.143 55.227-64.621 75.859 14.97 13.084 28.096 24.321 39.335 33.716zM240.335 630.697c31.828-50.573 59.002-94.605 81.478-132.052-16.858-9.394-34.681-21.555-53.382-36.525-9.394 24.32-35.603 69.275-78.67 134.862 18.702 13.083 35.559 24.321 50.573 33.716zM172.903 181.157c22.477 28.096 42.583 59.923 60.406 95.526 17.779 35.561 34.155 73.972 49.168 115.196 16.858-13.126 33.716-24.366 50.573-33.714-20.634-37.491-41.222-76.827-61.812-118.004-20.634-41.221-35.603-73.050-44.955-95.527-18.742 16.858-36.523 29.018-53.381 36.525zM420.15 442.452v44.954h148.91v-44.954h-148.91zM422.961 389.069h148.909c-1.887-22.477-2.81-56.193-2.81-101.147 0-43.11 0.923-73.050 2.81-89.908h-148.909c1.844 26.209 2.81 56.193 2.81 89.908 0 35.559-0.966 69.274-2.81 101.147zM807.879 88.438c-15.014-20.589-33.716-24.321-56.193-11.239-22.478 13.126-52.461 51.54-89.908 115.196-37.491-48.73-80.558-91.753-129.244-129.244-13.125 18.746-27.174 33.716-42.144 44.955 48.686 22.477 97.371 69.275 146.101 140.481-28.096 73.050-44.032 172.308-47.764 297.82h-199.482v-162.958c3.732-131.13-20.634-238.818-73.050-323.107-15.014 13.126-33.716 23.443-56.193 30.907 31.828 39.334 53.382 88.503 64.621 147.505 11.237 59.002 16.858 124.063 16.858 195.27 0 71.163-0.966 123.623-2.811 157.339h247.247c-1.888 33.716-3.775 72.084-5.619 115.195 20.59-1.888 41.179-2.81 61.812-2.81-3.775-15.014-5.618-52.461-5.618-112.385h59.002c31.828 0 67.43 0.922 106.766 2.81v-50.573c-35.603 1.844-70.241 2.811-103.956 2.811h-59.002c-1.888-88.064 8.429-169.543 30.907-244.438 29.939 56.194 52.416 118.004 67.43 185.435 18.703-11.237 38.369-19.667 59.002-25.287-9.394-20.634-24.365-54.35-44.954-101.147-20.634-46.842-40.301-87.098-59.002-120.814 29.939-58.080 52.9-91.796 68.835-101.147 15.892-9.351 29.502 14.048 40.74 70.241 9.35-9.396 25.287-18.746 47.763-28.096-13.126-41.222-27.174-72.085-42.144-92.719z"  horiz-adv-x="1024" />

    
    <glyph glyph-name="dayinji" unicode="&#58881;" d="M410.3528838 17.80524699h261.69002667c18.07587555 0 32.70314667 14.49528889 32.70314666 32.3584 0 17.88586667-14.62613333 32.3584-32.70314666 32.3584h-261.69002667c-18.07587555 0-32.70314667-14.47253333-32.70314667-32.3584 0-17.86311111 14.62613333-32.3584 32.70314667-32.3584zM410.3528838 169.76912255000002h261.69002667c18.07587555 0 32.70314667 14.49528889 32.70314666 32.3584 0 17.88586667-14.62613333 32.3584-32.70314666 32.3584h-261.69002667c-18.07587555 0-32.70314667-14.47253333-32.70314667-32.3584 0-17.86311111 14.62613333-32.3584 32.70314667-32.3584zM841.35334602 298.87276698999995h26.97557333c21.20476445 0 38.45233778 17.06666667 38.45233778 38.04728889 0 20.98176-17.24757333 38.04728889-38.45233778 38.04728889h-654.23701333c-21.20476445 0-38.45233778-17.06666667-38.45233777-38.04728889 0-20.98176 17.24757333-38.04728889 38.45233777-38.04728889h26.95281778v-118.10133334h-59.65710222c-31.23086222 0-92.35911111 41.39235555-92.35911111 91.40906667v229.69457778c0 50.3808 41.44241778 91.38517333 92.35911111 91.38517333h719.64103111c50.93944889 0 92.35911111-41.00551111 92.35911111-91.40906666v-229.67182222c0-50.40469333-41.41852445-91.40906667-92.35911111-91.40906667h-59.67872v118.10133333zM731.72390602 669.3559669900001h-381.04860444v150.45973333h381.04860444v-150.45973333zM764.42591491-45.78287745h-446.45376v344.65564444h446.45376v-344.65564444zM901.0332038 669.3559669900001h-92.40576v185.36789333c0 22.7328-18.67434667 41.20917333-41.64949333 41.20917333h-451.53621334c-22.97514667 0-41.67111111-18.47751111-41.67111111-41.20917333v-185.36789333h-92.38186667c-93.34670222 0-169.30929778-75.13884445-169.30929777-167.50364444v-229.67182223c0-98.14471111 100.13240889-164.77297778 169.30929777-167.5264h59.65596445v-186.20871111c0-22.23217778 18.28295111-40.3456 40.77568-40.3456h518.7584c22.46883555 0 40.77568 18.11342222 40.77568 40.3456v186.20871111h59.67872c77.22552889 0 169.30929778 29.05884445 169.30929778 167.5264v229.67182223c0 92.3648-75.96032 167.50364445-169.30929778 167.50364444v0z"  horiz-adv-x="1081" />

    
    <glyph glyph-name="quan" unicode="&#58888;" d="M424.754-90.575c-24.22 0-46.972 9.541-63.852 26.972l-72.659 74.861c-13.027 13.578-12.844 35.045 0.734 48.256 15.229 14.862 23.669 34.678 24.036 55.962 0.183 21.284-7.89 41.283-22.752 56.512-29.724 30.458-82.199 31.008-112.475 1.468-6.421-6.421-16.33-9.725-24.22-9.725-8.991 0.183-17.797 3.853-24.036 10.459l-72.476 74.677c-16.513 16.88-25.687 39.449-25.321 63.301 0.183 23.853 9.908 46.238 26.972 62.934l472.649 463.108c34.311 33.394 93.025 32.66 126.236-1.468l72.659-74.861c13.027-13.578 12.844-35.045-0.734-48.256-15.229-14.862-23.669-34.862-24.036-55.962s7.89-41.283 22.569-56.512c29.724-30.458 82.199-31.008 112.658-1.284 6.421 6.421 15.596 8.991 24.22 9.725 8.991-0.183 17.797-3.853 24.036-10.459l72.476-74.861c16.513-16.697 25.687-39.265 25.321-63.118-0.183-23.853-9.725-46.238-26.788-62.934l-472.832-463.292c-16.88-16.513-39.082-25.504-62.384-25.504zM358.15 37.127l51.558-53.21c7.707-7.89 21.651-8.074 29.724-0.183l473.015 463.475c4.036 4.036 6.238 9.174 6.421 14.862 0 5.504-2.018 10.826-6.054 14.678l-51.558 53.21c-22.752-13.761-48.806-20.917-75.962-20.917-40.182 0-77.796 15.779-105.869 44.586-27.522 28.256-42.567 65.503-42.017 104.951 0.367 27.889 8.257 54.494 22.935 77.429l-51.558 53.21c-7.707 7.89-21.651 8.074-29.724 0.183l-473.015-463.475c-4.036-4.036-6.238-9.174-6.421-14.862 0-5.687 2.018-10.826 6.054-14.862l51.558-53.21c22.752 13.761 48.806 20.917 75.962 20.917 40.182 0 77.796-15.779 105.869-44.586 27.522-28.256 42.567-65.503 42.017-104.951-0.367-27.706-8.257-54.31-22.935-77.246zM343.655 308.13c-8.807 0-17.43 3.302-24.22 10.092-13.394 13.394-13.394 34.862 0 48.256l190.638 190.638c13.394 13.394 34.862 13.394 48.256 0s13.394-34.862 0-48.256l-190.454-190.821c-6.789-6.606-15.412-9.908-24.22-9.908zM445.671 206.114c-8.807 0-17.43 3.302-24.22 10.092-13.394 13.394-13.394 34.862 0 48.256l190.638 190.454c13.394 13.394 34.862 13.394 48.256 0s13.394-34.862 0-48.256l-190.638-190.638c-6.606-6.606-15.412-9.908-24.036-9.908z"  horiz-adv-x="1024" />

    
    <glyph glyph-name="daishouhuo" unicode="&#58915;" d="M936.199 754.991h-517.14c-48.581 0-88.105-39.523-88.105-88.105v-58.078l-133.484 0.020c-10.116 0-31.246-12.838-60.582-40.786-12.656-12.048-27.174-27.678-41.966-45.26l-0.159-0.182-11.115-13.225h0.246c-0.476-0.59-0.929-1.178-1.405-1.769-11.888-14.836-22.298-30.308-32.233-44.694-7.488-10.89-13.975-21.095-19.328-30.33-17.037-29.331-17.033-42.921-17.033-51.564v-240.967c0-24.054 18.341-44.766 40.983-54.716 2.652-73.628 63.365-132.711 137.629-132.711 72.222 0 131.633 55.877 137.283 126.67l53.6 0.827 0.001 1.501h25.52c3.331-0.384 6.711-0.603 10.145-0.603h217.557c4.817-71.606 64.601-128.394 137.407-128.394s132.589 56.788 137.406 128.394h24.77c48.581 0 88.106 39.523 88.106 88.105v497.762c0 48.58-39.524 88.105-88.106 88.105zM93.938 414.804l3.22 5.263 0.364 0.499c7.009 11.161 3.927 9.355 13.407 22.151 0.068 0.091 3.748 4.593 8.642 10.566 5.331 7.149-0.161-0.405 5.6 6.764l105.044-0.030c7.030 0 15.974-5.111 15.974-12.189l-0.148-65.161c0-7.077-10.631-7.743-17.663-7.743h-142.172l-1.503-0.227-0.934-0.001c0.158 1.088-3.622 17.327 10.17 40.107zM256.958 310.794c33.484 0 51.121 8.235 54.941 36.614l-1.091 120.613c0 33.801-3.082 56.213-36.566 56.213l-90.959-0.26c0 0-11.279-1.321-10.054-0.118 16.334 16.084 24.015 18.546 26.509 19.772h128.478c0.804 0 1.733-0.22 2.739-0.604v-373.903c0-8.845 1.324-17.382 3.76-25.442h-15.223c-20.882 49.538-69.936 84.401-126.982 84.401-47.382 0-89.252-24.053-114.043-60.587l0.374 143.298h178.117zM192.509 18.117c-39.831 0-72.238 32.405-72.238 72.237s32.405 72.237 72.238 72.237c39.83 0 72.237-32.405 72.237-72.237s-32.406-72.237-72.237-72.237zM774.023 18.117c-39.831 0-72.238 32.405-72.238 72.237s32.405 72.237 72.238 72.237c39.83 0 72.237-32.405 72.237-72.237s-32.406-72.237-72.237-72.237zM958.814 169.124c0-12.468-10.145-22.613-22.614-22.613h-36.427c-21.534 48.030-69.795 81.571-125.749 81.571s-104.217-33.541-125.75-81.571h-229.214c-12.469 0-22.613 10.144-22.613 22.613v497.762c0 12.468 10.144 22.613 22.613 22.613h517.14c12.469 0 22.614-10.144 22.614-22.613v-497.762z"  horiz-adv-x="1024" />

    
    <glyph glyph-name="qianbao" unicode="&#58924;" d="M782.72 801.78c-25.26 39.42-52.86 62.22-119.22 62.22-14.16 0-57.18 0-335.46-148.44l-115.14-60.36h657.48l-87.66 146.58zM457.040 715.2c169.32 85.92 202.74 88.8 206.46 88.8 42.66 0 52.2-8.94 68.16-33.78l32.94-55.020h-307.56zM716.54 307.8c-11.4-11.4-17.040-25.74-17.040-42.84 0-17.16 5.64-31.38 17.040-42.84 11.46-11.46 25.8-17.16 42.96-17.16 17.1 0 31.38 5.7 42.84 17.16 11.4 11.4 17.16 25.68 17.16 42.84 0 17.1-5.76 31.38-17.16 42.84-11.4 11.46-25.74 17.16-42.84 17.16-17.16 0.060-31.44-5.64-42.96-17.16zM989 356.28h3v107.040c0 82.56-67.14 149.64-149.64 149.64h-660.72c-82.5 0-149.64-67.080-149.64-149.64v-409.68c0-82.5 67.14-149.64 149.64-149.64h660.72c82.5 0 149.64 67.14 149.64 149.64v72.24h-0.3v47.76h-253.020c-48.78 0-89.94 42.42-89.94 92.64 0 49.62 40.32 90 89.94 90h250.32zM738.68 416.28c-82.68 0-149.94-67.32-149.94-150 0-84.12 67.26-152.58 149.94-152.58h193.38v-60.060c0-49.44-40.26-89.64-89.7-89.64h-660.72c-49.38 0-89.7 40.2-89.7 89.64v409.68c0 49.44 40.26 89.64 89.7 89.64h660.72c49.44 0 89.7-40.2 89.7-89.64v-47.040h-193.38z"  horiz-adv-x="1024" />

    
    <glyph glyph-name="accountbox" unicode="&#58886;" d="M128 682.666667l0-597.333333c0-46.933333 38.4-85.333333 85.333333-85.333333l597.333333 0c46.933333 0 85.333333 38.4 85.333333 85.333333L896 682.666667c0 46.933333-38.4 85.333333-85.333333 85.333333L213.333333 768C166.4 768 128 729.6 128 682.666667zM640 512c0-72.533333-55.466667-128-128-128-72.533333 0-128 55.466667-128 128 0 72.533333 55.466667 128 128 128C584.533333 640 640 584.533333 640 512zM256 170.666667c0 85.333333 170.666667 132.266667 256 132.266667s256-46.933333 256-132.266667l0-42.666667L256 128 256 170.666667z"  horiz-adv-x="1024" />

    
    <glyph glyph-name="accountcircle" unicode="&#58887;" d="M512 810.666667C277.333333 810.666667 85.333333 618.666667 85.333333 384s192-426.666667 426.666667-426.666667c234.666667 0 426.666667 192 426.666667 426.666667S746.666667 810.666667 512 810.666667zM512 682.666667c72.533333 0 128-55.466667 128-128 0-72.533333-55.466667-128-128-128-72.533333 0-128 55.466667-128 128C384 627.2 439.466667 682.666667 512 682.666667zM512 76.8c-106.666667 0-200.533333 55.466667-256 136.533333 0 85.333333 170.666667 132.266667 256 132.266667 85.333333 0 256-46.933333 256-132.266667C712.533333 132.266667 618.666667 76.8 512 76.8z"  horiz-adv-x="1024" />

    
    <glyph glyph-name="add" unicode="&#58893;" d="M1012.5143624380469 312.4979477443279l-429.0123101823747 0 0-429.0123101823747-143.00410283551506 0 0 429.0123101823747L11.485637561953354 312.4979477443279l0 143.00410283551506 429.0123101823747 0L440.4979477443277 884.5143624380466l143.00410283551506 0 0-429.0123101823747 429.0123101823747 0L1012.5143624380469 312.4979477443279z"  horiz-adv-x="1024" />

    
    <glyph glyph-name="arrowback" unicode="&#58899;" d="M853.333333 426.666667 332.8 426.666667l238.933333 238.933333L512 725.333333l-341.333333-341.333333 341.333333-341.333333 59.733333 59.733333L332.8 341.333333 853.333333 341.333333 853.333333 426.666667z"  horiz-adv-x="1024" />

    
    <glyph glyph-name="arrowdropdown" unicode="&#58901;" d="M298.666667 469.333333 512 256 725.333333 469.333333Z"  horiz-adv-x="1024" />

    
    <glyph glyph-name="arrowdropup" unicode="&#58902;" d="M298.666667 298.666667 512 512 725.333333 298.666667Z"  horiz-adv-x="1024" />

    
    <glyph glyph-name="cancel" unicode="&#58934;" d="M512 810.666667C277.333333 810.666667 85.333333 618.666667 85.333333 384s192-426.666667 426.666667-426.666667c234.666667 0 426.666667 192 426.666667 426.666667S746.666667 810.666667 512 810.666667zM725.333333 230.4 665.6 170.666667 512 324.266667 358.4 170.666667 298.666667 230.4l153.6 153.6L298.666667 537.6 358.4 597.333333l153.6-153.6L665.6 597.333333 725.333333 537.6 571.733333 384 725.333333 230.4z"  horiz-adv-x="1024" />

    
    <glyph glyph-name="chat" unicode="&#58937;" d="M853.333333 810.666667 170.666667 810.666667C123.733333 810.666667 85.333333 772.266667 85.333333 725.333333l0-768 170.666667 170.666667 597.333333 0c46.933333 0 85.333333 38.4 85.333333 85.333333L938.666667 725.333333C938.666667 772.266667 900.266667 810.666667 853.333333 810.666667zM256 512l512 0 0-85.333333L256 426.666667 256 512zM597.333333 298.666667 256 298.666667l0 85.333333 341.333333 0L597.333333 298.666667zM768 554.666667 256 554.666667 256 640l512 0L768 554.666667z"  horiz-adv-x="1024" />

    
    <glyph glyph-name="checkboxoutline" unicode="&#58940;" d="M337.066667 465.066667l-59.733333-59.733333L469.333333 213.333333 896 640l-59.733333 59.733333L469.333333 332.8 337.066667 465.066667zM810.666667 85.333333 213.333333 85.333333 213.333333 682.666667l426.666667 0L640 768 213.333333 768C166.4 768 128 729.6 128 682.666667l0-597.333333c0-46.933333 38.4-85.333333 85.333333-85.333333l597.333333 0c46.933333 0 85.333333 38.4 85.333333 85.333333l0 341.333333-85.333333 0L810.666667 85.333333z"  horiz-adv-x="1024" />

    
    <glyph glyph-name="checkbox" unicode="&#58941;" d="M810.666667 768 213.333333 768C166.4 768 128 729.6 128 682.666667l0-597.333333c0-46.933333 38.4-85.333333 85.333333-85.333333l597.333333 0c46.933333 0 85.333333 38.4 85.333333 85.333333L896 682.666667C896 729.6 857.6 768 810.666667 768zM426.666667 170.666667l-213.333333 213.333333 59.733333 59.733333 153.6-153.6 324.266667 324.266667L810.666667 554.666667 426.666667 170.666667z"  horiz-adv-x="1024" />

    
    <glyph glyph-name="checkcircleoutline" unicode="&#58944;" d="M337.066667 465.066667l-59.733333-59.733333L469.333333 213.333333 896 640l-59.733333 59.733333L469.333333 332.8 337.066667 465.066667zM853.333333 384c0-187.733333-153.6-341.333333-341.333333-341.333333s-341.333333 153.6-341.333333 341.333333 153.6 341.333333 341.333333 341.333333c34.133333 0 64-4.266667 93.866667-12.8l68.266667 68.266667C622.933333 797.866667 567.466667 810.666667 512 810.666667 277.333333 810.666667 85.333333 618.666667 85.333333 384s192-426.666667 426.666667-426.666667 426.666667 192 426.666667 426.666667L853.333333 384z"  horiz-adv-x="1024" />

    
    <glyph glyph-name="checkcircle" unicode="&#58945;" d="M512 810.666667C277.333333 810.666667 85.333333 618.666667 85.333333 384c0-234.666667 192-426.666667 426.666667-426.666667 234.666667 0 426.666667 192 426.666667 426.666667C938.666667 618.666667 746.666667 810.666667 512 810.666667zM426.666667 170.666667l-213.333333 213.333333 59.733333 59.733333 153.6-153.6 324.266667 324.266667L810.666667 554.666667 426.666667 170.666667z"  horiz-adv-x="1024" />

    
    <glyph glyph-name="check" unicode="&#58946;" d="M384 204.8 204.8 384 145.066667 324.266667 384 85.333333 896 597.333333 836.266667 657.066667Z"  horiz-adv-x="1024" />

    
    <glyph glyph-name="chevronleft" unicode="&#58947;" d="M657.066667 580.266667 597.333333 640 341.333333 384 597.333333 128 657.066667 187.733333 460.8 384Z"  horiz-adv-x="1024" />

    
    <glyph glyph-name="chevronright" unicode="&#58948;" d="M349.294 872.119l-113.893-113.893 374.226-374.226-374.226-374.226 113.893-113.893 488.119 488.119z"  horiz-adv-x="1024" />

    
    <glyph glyph-name="clear" unicode="&#58953;" d="M810.666667 622.933333 750.933333 682.666667 512 443.733333 273.066667 682.666667 213.333333 622.933333 452.266667 384 213.333333 145.066667 273.066667 85.333333 512 324.266667 750.933333 85.333333 810.666667 145.066667 571.733333 384Z"  horiz-adv-x="1024" />

    
    <glyph glyph-name="comment" unicode="&#58963;" d="M938.666667 725.333333c0 46.933333-38.4 85.333333-85.333333 85.333333L170.666667 810.666667C123.733333 810.666667 85.333333 772.266667 85.333333 725.333333l0-512c0-46.933333 38.4-85.333333 85.333333-85.333333l597.333333 0 170.666667-170.666667L938.666667 725.333333zM768 298.666667 256 298.666667l0 85.333333 512 0L768 298.666667zM768 426.666667 256 426.666667 256 512l512 0L768 426.666667zM768 554.666667 256 554.666667 256 640l512 0L768 554.666667z"  horiz-adv-x="1024" />

    
    <glyph glyph-name="contentpaste" unicode="&#58967;" d="M810.666667 810.666667l-179.2 0c-17.066667 51.2-64 85.333333-119.466667 85.333333-55.466667 0-102.4-34.133333-119.466667-85.333333L213.333333 810.666667C166.4 810.666667 128 772.266667 128 725.333333l0-682.666667c0-46.933333 38.4-85.333333 85.333333-85.333333l597.333333 0c46.933333 0 85.333333 38.4 85.333333 85.333333L896 725.333333C896 772.266667 857.6 810.666667 810.666667 810.666667zM512 810.666667c25.6 0 42.666667-17.066667 42.666667-42.666667s-17.066667-42.666667-42.666667-42.666667c-25.6 0-42.666667 17.066667-42.666667 42.666667S486.4 810.666667 512 810.666667zM810.666667 42.666667 213.333333 42.666667 213.333333 725.333333l85.333333 0 0-128 426.666667 0L725.333333 725.333333l85.333333 0L810.666667 42.666667z"  horiz-adv-x="1024" />

    
    <glyph glyph-name="create" unicode="&#58968;" d="M128 162.133333 128 0l162.133333 0L759.466667 473.6l-162.133333 162.133333L128 162.133333zM883.2 597.333333c17.066667 17.066667 17.066667 42.666667 0 59.733333l-98.133333 98.133333c-17.066667 17.066667-42.666667 17.066667-59.733333 0l-76.8-76.8 162.133333-162.133333L883.2 597.333333z"  horiz-adv-x="1024" />

    
    <glyph glyph-name="favoriteoutline" unicode="&#59022;" d="M704 768c-72.533333 0-145.066667-34.133333-192-89.6C465.066667 733.866667 392.533333 768 320 768 187.733333 768 85.333333 665.6 85.333333 533.333333c0-162.133333 145.066667-294.4 366.933333-490.666667l59.733333-55.466667 59.733333 55.466667c217.6 200.533333 366.933333 332.8 366.933333 490.666667C938.666667 665.6 836.266667 768 704 768zM516.266667 102.4 512 102.4l-4.266667 4.266667C302.933333 290.133333 170.666667 409.6 170.666667 533.333333 170.666667 618.666667 234.666667 682.666667 320 682.666667c64 0 128-42.666667 153.6-102.4l81.066667 0C576 640 640 682.666667 704 682.666667c85.333333 0 149.333333-64 149.333333-149.333333C853.333333 409.6 721.066667 290.133333 516.266667 102.4z"  horiz-adv-x="1024" />

    
    <glyph glyph-name="favorite" unicode="&#59023;" d="M512-17.066667 452.266667 42.666667C230.4 238.933333 85.333333 371.2 85.333333 533.333333 85.333333 665.6 187.733333 768 320 768c72.533333 0 145.066667-34.133333 192-89.6C558.933333 733.866667 631.466667 768 704 768 836.266667 768 938.666667 665.6 938.666667 533.333333c0-162.133333-145.066667-294.4-366.933333-490.666667L512-17.066667z"  horiz-adv-x="1024" />

    
    <glyph glyph-name="forum" unicode="&#59037;" d="M896 640l-85.333333 0 0-384L256 256l0-85.333333c0-25.6 17.066667-42.666667 42.666667-42.666667l469.333333 0 170.666667-170.666667L938.666667 597.333333C938.666667 622.933333 921.6 640 896 640zM725.333333 384 725.333333 768c0 25.6-17.066667 42.666667-42.666667 42.666667L128 810.666667C102.4 810.666667 85.333333 793.6 85.333333 768l0-597.333333 170.666667 170.666667 426.666667 0C708.266667 341.333333 725.333333 358.4 725.333333 384z"  horiz-adv-x="1024" />

    
    <glyph glyph-name="home" unicode="&#59061;" d="M426.666667 42.666667 426.666667 298.666667 597.333333 298.666667 597.333333 42.666667 810.666667 42.666667 810.666667 384 938.666667 384 512 768 85.333333 384 213.333333 384 213.333333 42.666667Z"  horiz-adv-x="1024" />

    
    <glyph glyph-name="keyboardcapslock" unicode="&#59097;" d="M512 537.6l196.266667-196.266667 59.733333 59.733333-256 256-256-256L315.733333 341.333333 512 537.6zM256 128l512 0 0 85.333333L256 213.333333 256 128z"  horiz-adv-x="1024" />

    
    <glyph glyph-name="news" unicode="&#59142;" d="M866.133333 695.466667 797.866667 768 725.333333 695.466667 652.8 768l-72.533333-72.533333L512 768l-72.533333-72.533333L371.2 768 298.666667 695.466667 226.133333 768 157.866667 695.466667 85.333333 768l0-682.666667c0-46.933333 38.4-85.333333 85.333333-85.333333l682.666667 0c46.933333 0 85.333333 38.4 85.333333 85.333333l0 682.666667L866.133333 695.466667zM512 85.333333 170.666667 85.333333l0 298.666667 341.333333 0L512 85.333333zM853.333333 85.333333l-298.666667 0 0 42.666667 298.666667 0L853.333333 85.333333zM853.333333 170.666667l-298.666667 0 0 42.666667 298.666667 0L853.333333 170.666667zM853.333333 256l-298.666667 0 0 42.666667 298.666667 0L853.333333 256zM853.333333 341.333333l-298.666667 0 0 42.666667 298.666667 0L853.333333 341.333333zM853.333333 426.666667 170.666667 426.666667 170.666667 554.666667l682.666667 0L853.333333 426.666667z"  horiz-adv-x="1024" />

    
    <glyph glyph-name="personlocation" unicode="&#59158;" d="M810.667 832h-597.333c-46.933 0-85.333-38.4-85.333-85.333v-597.333c0-46.933 38.4-85.333 85.333-85.333h170.667l128-128 128 128h170.667c46.933 0 85.333 38.4 85.333 85.333v597.333c0 46.933-38.4 85.333-85.333 85.333zM512 691.2c64 0 115.2-51.2 115.2-115.2s-51.2-115.2-115.2-115.2c-64 0-115.2 51.2-115.2 115.2 0 64 51.2 115.2 115.2 115.2zM768 234.667h-512v38.4c0 85.333 170.667 132.267 256 132.267s256-46.933 256-132.267v-38.4z"  horiz-adv-x="1024" />

    
    <glyph glyph-name="remove" unicode="&#59199;" d="M1012.5143624380469 312.4979477443279L11.485637561953297 312.4979477443279l0 143.00410283551506 1001.0287232002642 0L1012.5143624380469 312.4979477443279z"  horiz-adv-x="1024" />

    
    <glyph glyph-name="satellite" unicode="&#59207;" d="M512 810.666667C277.333333 810.666667 85.333333 618.666667 85.333333 384c0-234.666667 192-426.666667 426.666667-426.666667 234.666667 0 426.666667 192 426.666667 426.666667C938.666667 618.666667 746.666667 810.666667 512 810.666667zM618.666667 469.333333l-179.2-179.2L341.333333 384l-140.8-140.8C183.466667 285.866667 170.666667 332.8 170.666667 384c0 187.733333 153.6 341.333333 341.333333 341.333333 187.733333 0 341.333333-153.6 341.333333-341.333333 0-42.666667-8.533333-85.333333-25.6-123.733333L618.666667 469.333333z"  horiz-adv-x="1024" />

    
    <glyph glyph-name="search" unicode="&#59217;" d="M661.333333 298.666667l-34.133333 0-12.8 12.8c42.666667 46.933333 68.266667 110.933333 68.266667 179.2C682.666667 644.266667 558.933333 768 405.333333 768 251.733333 768 128 644.266667 128 490.666667S251.733333 213.333333 405.333333 213.333333c68.266667 0 132.266667 25.6 179.2 68.266667l12.8-12.8 0-34.133333 213.333333-213.333333 64 64L661.333333 298.666667zM405.333333 298.666667C298.666667 298.666667 213.333333 384 213.333333 490.666667S298.666667 682.666667 405.333333 682.666667C512 682.666667 597.333333 597.333333 597.333333 490.666667S512 298.666667 405.333333 298.666667z"  horiz-adv-x="1024" />

    
    <glyph glyph-name="sharealt" unicode="&#59227;" d="M768 512c-34.133333 0-64-12.8-85.333333-34.133333L379.733333 652.8C384 661.333333 384 674.133333 384 682.666667c0 72.533333-55.466667 128-128 128C183.466667 810.666667 128 755.2 128 682.666667s55.466667-128 128-128c34.133333 0 64 12.8 85.333333 34.133333l302.933333-174.933333C640 405.333333 640 392.533333 640 384s0-21.333333 4.266667-29.866667L341.333333 174.933333c-21.333333 21.333333-51.2 34.133333-85.333333 34.133333-68.266667 0-123.733333-55.466667-123.733333-123.733333s55.466667-123.733333 123.733333-123.733333c68.266667 0 123.733333 55.466667 123.733333 123.733333 0 8.533333 0 17.066667-4.266667 29.866667l302.933333 179.2c21.333333-21.333333 51.2-34.133333 85.333333-34.133333 72.533333 0 128 55.466667 128 128S840.533333 512 768 512z"  horiz-adv-x="1024" />

    
    <glyph glyph-name="starhalf" unicode="&#59248;" d="M938.666667 480.256l-306.816 26.325333L512 789.333333 392.149333 506.581333 85.333333 480.256l0 0 0 0 232.746667-201.685333L248.32-21.333333 512 137.728l0 0 263.68-159.018667-69.76 299.904L938.666667 480.256zM512 217.770667 512 614.613333l72.96-172.202667 186.88-16.042667-141.738667-122.794667 42.496-182.656L512 217.770667z"  horiz-adv-x="1024" />

    
    <glyph glyph-name="staroutline" unicode="&#59249;" d="M938.666667 501.589333l-306.816 26.325333L512 810.666667 392.149333 527.914667 85.333333 501.589333l232.746667-201.685333L248.32 0 512 159.061333 775.68 0l-69.76 299.904L938.666667 501.589333zM512 239.104l-160.554667-96.853333 42.496 182.656L252.16 447.701333l186.88 16.042667L512 635.946667l72.96-172.202667 186.88-16.042667-141.738667-122.794667 42.496-182.656L512 239.104z"  horiz-adv-x="1024" />

    
    <glyph glyph-name="store" unicode="&#59254;" d="M926.253 798.253h-828.505v-103.563h828.505v103.563zM978.034 280.437v103.563l-51.781 258.907h-828.505l-51.781-258.907v-103.563h51.781v-310.689h517.815v310.689h207.126v-310.689h103.563v310.689h51.781zM512 73.311h-310.689v207.126h310.689v-207.126z"  horiz-adv-x="1024" />

    
    <glyph glyph-name="undo" unicode="&#59285;" d="M512 682.667v149.333l-213.333-213.333 213.333-213.333v192c140.8 0 256-115.2 256-256s-115.2-256-256-256c-140.8 0-256 115.2-256 256h-85.333c0-187.733 153.6-341.333 341.333-341.333s341.333 153.6 341.333 341.333-153.6 341.333-341.333 341.333z"  horiz-adv-x="1024" />

    
    <glyph glyph-name="unknown3" unicode="&#59290;" d="M554.667 554.667h-85.333v-128h-128v-85.333h128v-128h85.333v128h128v85.333h-128l0 128zM512 810.667c-234.667 0-426.667-192-426.667-426.667s192-426.667 426.667-426.667c234.667 0 426.667 192 426.667 426.667 0 234.667-192 426.667-426.667 426.667zM512 42.667c-187.733 0-341.333 153.6-341.333 341.333s153.6 341.333 341.333 341.333c187.733 0 341.333-153.6 341.333-341.333 0-187.733-153.6-341.333-341.333-341.333z"  horiz-adv-x="1024" />

    
    <glyph glyph-name="unknown4" unicode="&#59291;" d="M512 810.667c-234.667 0-426.667-192-426.667-426.667s192-426.667 426.667-426.667c234.667 0 426.667 192 426.667 426.667 0 234.667-192 426.667-426.667 426.667zM512 42.667c-187.733 0-341.333 153.6-341.333 341.333s153.6 341.333 341.333 341.333c187.733 0 341.333-153.6 341.333-341.333 0-187.733-153.6-341.333-341.333-341.333zM341.333 341.333h341.333v85.333l-341.333 0v-85.333z"  horiz-adv-x="1024" />

    
    <glyph glyph-name="mimasuo" unicode="&#59466;" d="M822.6896 523.2062464l-68.1148416 0L754.5747584 628.70118401C754.5747584 760.915968 645.48025599 868.55680001 511.53491199 868.55680001c-133.945344 0-242.970624-107.64083201-242.970624-239.855616l0-105.49493761L199.688 523.2062464c-76.4215296 0-138.44479999-62.0232704-138.44480001-138.44480001l0-346.11199999c0-76.4215296 62.0232704-138.44479999 138.44480001-138.4448l623.0016 0c76.4215296 0 138.44479999 62.0232704 138.44479999 138.4448l0 346.11199999C961.13439999 461.18297599 899.1111296 523.2062464 822.6896 523.2062464zM337.9943552 628.70118401c0 94.4193536 77.8752 171.32544 173.54055679 171.32544 95.7345792 0 173.6097792-76.836864 173.6097792-171.32544l0-105.49493761L337.9943552 523.2062464 337.9943552 628.70118401zM891.912 38.64944639999999c0-38.2799872-30.9424128-69.22240001-69.2224-69.2224L199.688-30.572953600000005c-38.2799872 0-69.22240001 30.9424128-69.2224 69.2224l0 346.11199999c0 38.2799872 30.9424128 69.22240001 69.2224 69.22240001l623.0016 0c38.2799872 0 69.22240001-30.9424128 69.2224-69.22240001L891.912 38.64944639999999zM511.1888 384.76144639c-57.3161472 0-103.8336-30.9424128-103.8336-69.22239998 0-30.111744 29.0041856-55.4471424 69.2224-64.9998336l0-108.05616641c0-19.1053824 15.50581759-34.6112 34.6112-34.61119999s34.6112 15.50581759 34.61119999 34.61119999L545.79999999 250.53921280999998c40.2182144 9.5526912 69.22240001 34.8880896 69.22240001 64.9998336C615.0224 353.74981119999995 568.5049472 384.76144639 511.1888 384.76144639z"  horiz-adv-x="1024" />

    
    <glyph glyph-name="add1" unicode="&#58942;" d="M443.4285715625 452.5714284375L100.65557093750004 452.5714284375C62.85362937499997 452.5714284375 32 421.8709546875 32 384 32 345.86501718750003 62.73814625 315.4285715625 100.65557093750004 315.4285715625L443.4285715625 315.4285715625 443.4285715625-27.344429062500012C443.4285715625-65.14637062500003 474.1290453125-96 512-96 550.1349828125-96 580.5714284375-65.26185281249991 580.5714284375-27.344429062500012L580.5714284375 315.4285715625 923.3444290625 315.4285715625C961.146370625 315.4285715625 992 346.1290453125 992 384 992 422.1349828125 961.2618528124999 452.5714284375 923.3444290625 452.5714284375L580.5714284375 452.5714284375 580.5714284375 795.3444290625C580.5714284375 833.146370625 549.8709546875 864 512 864 473.8650171875 864 443.4285715625 833.26185375 443.4285715625 795.3444290625L443.4285715625 452.5714284375Z"  horiz-adv-x="1024" />

    
    <glyph glyph-name="shangpin" unicode="&#58919;" d="M781.833 801.832h-135.349c0.025-0.105-9.309 0.097-9.293 0-18.417-2.275-41.992-7.206-41.992-41.996 0-32.166 23.574-39.712 41.992-41.992-0.012-0.055-0.006-0.028 0 0h125.975c41.161 0 83.988-42.836 83.988-83.983v-503.902c0-41.156-42.827-83.983-83.988-83.983h-503.902c-41.153 0-83.979 42.827-83.979 83.983v503.902c0 41.148 42.827 83.983 83.979 83.983 0 0 126.475 0 125.976 0-0.193-1.99 41.992 9.826 41.992 41.992 0 30.856-23.574 39.72-41.992 41.996 0.010 0.055 0.004 0.028-0.002 0h-144.728c-82.309-0.064-149.214-66.998-149.214-149.306v-541.238c0-82.333 66.961-149.298 149.306-149.298h541.229c82.345 0 149.302 66.965 149.302 149.298v541.238c0 82.345-66.956 149.306-149.302 149.306zM362.889 508.519c16.99 12.459 28.097 33.036 28.097 56.328 0 38.040-29.571 68.888-66.053 68.888-36.487 0-66.053-30.847-66.053-68.888 0-27.555 17.558-47.938 37.978-62.329 0-179.293 130.192-204.593 214.365-204.593 85.462 0 214.365 22.675 214.365 204.593 20.421 14.391 37.978 34.774 37.978 62.329 0 38.040-29.571 68.888-66.050 68.888s-66.058-30.847-66.058-68.888c0-23.293 11.115-43.873 28.092-56.328-25.489-144.096-107.478-126.61-148.328-126.61-39.721 0-122.847-17.472-148.333 126.61z"  horiz-adv-x="1024" />

    
    <glyph glyph-name="gouwuchekong" unicode="&#58925;" d="M504.521985 135.291177 270.292783 135.291177c-16.379214 0-29.707595 13.147084-29.707595 29.305719L240.585188 434.098518c0 8.038526 2.686223 16.016619 7.563124 22.4698L342.980957 576.327343c5.459066 7.223695 14.360769 11.628214 23.691543 11.628214l137.849485 0 0-16.787133L366.6725 571.168424c-4.10135 0-7.994209-1.912688-10.415536-5.114601L261.424318 446.294797c-2.609675-3.453716-4.051997-7.726291-4.051997-12.19628l0-269.501621c0-6.901388 5.795474-12.519593 12.920462-12.519593l234.228196 0L504.520978 135.291177zM738.750181 135.291177 504.521985 135.291177l0 16.787133 234.228196 0c7.122974 0 12.918448 5.617198 12.918448 12.519593L751.668629 434.098518c0 4.475024-1.440307 8.743571-4.166819 12.349375L652.902836 565.900727c-2.538164 3.355009-6.434044 5.267697-10.535394 5.267697l-137.846464 0 0 16.787133 137.846464 0c9.330773 0 18.229455-4.40452 23.808379-11.776274l94.600988-119.458878c4.991722-6.60124 7.677945-14.584369 7.677945-22.622895l0-269.501621C768.454754 148.438261 755.129395 135.291177 738.750181 135.291177zM504.521985 343.470964 428.491895 343.470964 428.491895 430.48667 248.979258 430.48667 248.979258 447.272796 445.279028 447.272796 445.279028 360.25709 504.521985 360.25709ZM580.548047 343.470964 504.521985 343.470964 504.521985 360.25709 563.761921 360.25709 563.761921 447.272796 760.060684 447.272796 760.060684 430.48667 580.548047 430.48667ZM504.521985 636.786c-4.636178 0-8.393063 3.759907-8.393063 8.393063l0 82.070316c0 4.634163 3.756885 8.393063 8.393063 8.393063 4.636178 0 8.393063-3.759907 8.393063-8.393063l0-82.070316C512.915048 640.545907 509.158163 636.786 504.521985 636.786zM413.35759 636.786c-2.147367 0-4.294734 0.819867-5.934469 2.458594l-43.830663 43.835699c-3.278461 3.278461-3.278461 8.590476 0 11.868937 3.278461 3.278461 8.590476 3.278461 11.868937 0l43.830663-43.835699c3.278461-3.278461 3.278461-8.590476 0-11.868937C417.653332 637.605867 415.505965 636.786 413.35759 636.786zM595.682352 636.786c-2.147367 0-4.294734 0.819867-5.934469 2.458594-3.278461 3.278461-3.278461 8.590476 0 11.868937l43.832678 43.835699c3.278461 3.278461 8.590476 3.278461 11.868937 0s3.278461-8.590476 0-11.868937l-43.832678-43.835699C599.977086 637.605867 597.829719 636.786 595.682352 636.786zM504.521985-127.658557c-277.687199 0-503.603916 225.916717-503.603916 503.603916s225.916717 503.603916 503.603916 503.603916 503.603916-225.916717 503.603916-503.603916S782.208177-127.658557 504.521985-127.658557zM504.521985 857.167102c-265.345881 0-481.221743-215.87284-481.221743-481.221743s215.875862-481.221743 481.221743-481.221743 481.221743 215.87284 481.221743 481.221743S769.86686 857.167102 504.521985 857.167102z"  horiz-adv-x="1024" />

    
    <glyph glyph-name="duihao" unicode="&#58920;" d="M396.50129541 36.80483555000001C376.85020445 36.80483555000001 357.27678578 44.339048299999945 342.28603259 59.329801480000015L35.55813452 367.30045629999995C5.65430045 397.35963497 5.65430045 446.13783703 35.55813452 476.1970157 65.53964089 506.25619437 114.08482608 506.25619437 143.98866015 476.1970157L396.50129541 222.67464058999997 879.0016 707.11675259C908.90543408 737.25360355 957.45061925 737.25360355 987.43212563 707.11675259 1017.3359597 677.05757392 1017.3359597 628.35704415 987.43212563 598.2978654799999L450.71655822 59.329801480000015C435.72580503 44.339048299999945 416.07471408 36.80483555000001 396.50129541 36.80483555000001Z"  horiz-adv-x="1024" />

    
    <glyph glyph-name="fenzu" unicode="&#58950;" d="M950.761 143.728c-16.235 16.213-39.068 26.427-64.312 26.427h-84.741c-25.239 0-47.484-10.214-64.312-26.427-16.235-16.818-26.436-39.054-26.436-64.298v-84.705c0-25.243 10.201-48.070 26.436-64.303 16.828-16.212 39.073-26.421 64.312-26.421h84.741c25.244 0 48.077 10.209 64.312 26.421 16.235 16.233 26.44 39.061 26.44 64.303v84.705c0 25.244-10.207 47.481-26.44 64.298zM923.119-5.275c0-10.214-4.222-19.224-10.821-25.836-6.619-6.615-15.622-10.825-25.851-10.825h-84.741c-10.228 0-19.231 4.209-25.851 10.825-6.6 6.611-10.209 15.622-10.209 25.836v84.705c0 10.209 3.609 19.221 10.209 25.836 6.619 6.61 15.622 10.228 25.851 10.228h84.741c10.228 0 19.231-3.619 25.851-10.228 6.599-6.61 10.821-15.626 10.821-25.836v-84.705zM547.485 170.156h-84.762c-25.223 0-48.077-10.214-64.291-26.427-16.828-16.818-26.442-39.054-26.442-64.298v-84.705c0-25.243 9.616-48.070 26.442-64.303 16.214-16.212 39.073-26.421 64.291-26.421h84.762c24.624 0 47.484 10.209 64.306 26.421 16.219 16.233 26.446 39.061 26.446 64.303v84.705c0 25.244-10.228 47.481-26.446 64.298-16.822 16.213-39.682 26.427-64.306 26.427zM583.537-5.275c0-10.214-3.603-19.224-10.223-25.836-6.598-6.615-16.214-10.825-25.828-10.825h-84.762c-10.207 0-19.231 4.209-25.83 10.825-6.599 6.611-10.821 15.622-10.821 25.836v84.705c0 10.209 4.221 19.221 10.821 25.836 6.599 6.61 15.623 10.228 25.83 10.228h84.762c9.616 0 19.231-3.619 25.828-10.228 6.621-6.61 10.223-15.626 10.223-25.836v-84.705zM611.791 822.062c-16.822 16.222-39.682 26.437-64.306 26.437h-84.762c-25.218 0-48.077-10.214-64.291-26.437-16.828-16.824-26.442-39.656-26.442-64.289v-84.715c0-25.238 9.616-48.070 26.442-64.293 16.214-16.823 39.073-26.437 64.291-26.437h84.762c24.624 0 47.484 9.613 64.306 26.437 16.219 16.222 26.446 39.055 26.446 64.293v84.715c0 24.632-10.228 47.47-26.446 64.289zM583.537 673.057c0-10.213-3.603-19.224-10.223-25.835-6.598-6.61-16.214-10.82-25.828-10.82h-84.762c-10.207 0-19.231 4.209-25.83 10.82s-10.821 15.622-10.821 25.835v84.716c0 9.612 4.221 19.225 10.821 25.835 6.599 6.008 15.623 10.209 25.83 10.209h84.762c9.616 0 19.231-3.599 25.828-10.209 6.621-6.609 10.223-16.223 10.223-25.835v-84.716zM138.789 227.848c0-7.812 3.016-14.423 7.823-19.224 4.803-4.822 11.406-7.813 19.226-7.813 7.212 0 14.423 2.993 19.231 7.813 4.807 4.8 7.803 11.411 7.803 19.219v142.4h284.881v-142.399c0-7.807 3.016-14.418 7.823-19.219 4.808-4.822 12.021-8.424 19.231-8.424 7.804 0 14.423 3.603 19.231 8.424 4.807 4.8 7.82 11.411 7.82 19.219v142.399h284.887v-142.394c0-7.812 2.995-14.423 8.411-19.224 4.807-4.822 11.406-8.424 19.23-8.424 7.212 0 13.81 3.603 19.231 8.424 4.808 4.8 7.804 11.411 7.804 19.224v169.426c0 7.213-2.995 14.423-7.804 19.225-5.42 4.81-12.019 7.812-19.231 7.812h-311.935v100.337c0 7.213-3.604 13.823-8.41 19.224-4.807 4.813-11.427 7.814-19.231 7.814-7.211 0-14.423-3.002-19.231-7.814-4.807-5.401-7.823-12.011-7.823-19.224v-100.337h-311.91c-7.825 0-14.423-3.002-19.231-7.812-4.807-4.801-8.437-12.013-8.437-19.225h0.613v-169.426zM207.908 170.156h-84.763c-25.222 0-47.463-10.214-64.291-26.427-16.235-16.818-26.441-39.054-26.441-64.298v-84.705c0-25.243 10.207-48.070 26.441-64.303 16.828-16.212 39.069-26.421 64.291-26.421h84.763c25.238 0 48.070 10.209 64.305 26.421 16.828 16.233 26.442 39.061 26.442 64.303v84.705c0 25.244-9.616 47.481-26.442 64.298-16.235 16.213-39.068 26.427-64.305 26.427zM244.552-5.275c0-10.214-4.193-19.224-10.793-25.836-6.624-6.615-15.648-10.825-25.85-10.825h-84.763c-9.614 0-19.23 4.209-25.828 10.825-6.605 6.611-10.228 15.622-10.228 25.836v84.705c0 10.209 3.623 19.221 10.228 25.836 6.599 6.61 15.622 10.228 25.828 10.228h84.763c10.201 0 19.226-3.619 25.85-10.228 6.599-6.61 10.793-15.626 10.793-25.836v-84.705z"  horiz-adv-x="1024" />

    
    <glyph glyph-name="daifukuan" unicode="&#58916;" d="M737.879 424.909v40.909c0 12.273-8.182 20.454-20.454 20.454h-81.818l71.591 124.773c6.137 10.227 2.046 22.5-8.182 28.637l-45 22.5c-10.227 4.091-22.5 2.046-26.591-8.182l-94.091-167.727h-81.818l-92.046 167.727c-6.137 10.227-16.363 12.273-26.591 8.182l-47.046-22.5c-10.227-6.137-14.318-18.409-8.182-28.637l71.591-124.773h-81.818c-12.273 0-20.454-8.182-20.454-20.454v-40.909c0-12.273 8.182-20.454 20.454-20.454h184.091v-81.818h-184.091c-12.273 0-20.454-8.182-20.454-20.454v-40.909c0-12.273 8.182-20.454 20.454-20.454h184.091v-81.818c0-12.273 8.182-20.454 20.454-20.454h40.909c12.273 0 20.454 8.182 20.454 20.454v81.818h184.091c12.273 0 20.454 8.182 20.454 20.454v40.909c0 12.273-8.182 20.454-20.454 20.454h-184.091v81.818h184.091c12.273 0 20.454 8.182 20.454 20.454zM850.379 199.909c-73.637 0-132.954-59.318-132.954-132.954s59.318-132.954 132.954-132.954 132.954 59.318 132.954 132.954-59.318 132.954-132.954 132.954zM850.379-43.5c-61.363 0-110.454 49.091-110.454 110.454s49.091 110.454 110.454 110.454 110.454-49.091 110.454-110.454-49.091-110.454-110.454-110.454zM840.151 138.546h20.454v-81.818h-20.454v81.818zM840.151 77.182h81.818v-20.454h-81.818v20.454zM686.742 56.727h-480.682c-22.5 0-40.909 18.409-40.909 40.909v634.091c0 12.273 8.182 20.454 20.454 20.454h593.182c22.5 0 40.909-18.409 40.909-40.909v-482.727c10.227 2.046 20.454 2.046 30.682 2.046 18.409 0 34.773-2.046 51.137-8.182v529.773c0 45-36.818 81.818-81.818 81.818h-654.546c-45 0-81.818-36.818-81.818-81.818v-695.454c0-45 36.818-81.818 81.818-81.818h550.227c-16.363 24.546-26.591 51.137-28.637 81.818z"  horiz-adv-x="1024" />

    
    <glyph glyph-name="comiiszanwushuju" unicode="&#58928;" d="M958.957811 723.096437c0 6.638499 0 13.293987-0.391734 19.9115-2.626219 44.451662-44.658522 84.169733-89.183334 84.190719-118.450291 0.052964-236.901781 0.015989-355.352071 0.015989l0-0.28081c-119.562137 0-239.124274 0.07395-358.686411-0.031978-48.83529-0.041972-90.935546-42.856743-90.384919-91.464787 0.200864-17.703997 0.402327-35.418986 0.396731-53.123782-0.079346-164.928778 1.244156-329.869548-1.095657-494.767348-0.858018-59.921173 52.0645-103.960315 100.359756-99.024661 19.165406 1.958672 38.70156 0.22185 58.079022 0.168885 7.379996-0.020986 12.992591-0.529641 10.95897-11.15044-2.864058-14.929878-4.61627-30.155355-5.64857-45.341059-1.138828-16.760636 8.624553-28.822259 19.054081-40.76636 5.410931-6.204793 9.01129-14.220159 12.431571-21.854183 1.964268-4.405013 0.645562-10.536856 3.144868-14.348272 2.572656-3.918343 7.888052-7.867666 12.218716-8.132486 2.827483-0.158892 9.090836 6.724441 8.609163 9.582503-3.409688 20.363194 7.681792 27.66924 24.968072 30.887858 3.663516 0.688533 7.015244 3.197832 10.429929 5.018597 40.538915 21.591361 72.902972 53.198731 105.198875 85.048137 5.346775 5.284417 13.823628 10.166107 20.997164 10.367971 39.268176 1.122239 78.594513 1.206182 117.867886 0.41272 7.302049-0.148899 15.730335-4.447984 21.495426-9.35066 21.018749-17.851896 40.517529-37.516564 61.742938-55.10344 21.706283-17.989803 45.283098-33.630199 72.531624-42.206184 20.659993-6.511585 20.485111-5.982944 19.029098-27.753183-0.269817-4.034265 2.339414-10.261043 5.51626-11.97588 3.547595-1.9167 11.192412-1.640887 13.531825 0.910383 3.176846 3.462652 3.134875 9.964244 4.236128 15.215684 2.127558 10.113143 0.69353 23.496869 6.713448 29.839569 24.512381 25.82549 24.756215 55.357468 17.090413 86.414211-3.134875 12.706385 1.366074 14.316294 12.054827 14.104437 22.115006-0.433706 44.286774 0.932368 66.353812-0.1479 51.672966-2.509299 97.087974 47.288738 96.516362 98.421071C957.750629 365.531666 958.978796 544.322046 958.957811 723.096437zM330.872852 25.412067c-11.562561-8.799034-25.708969-15.046798-39.590957-19.790582-22.474163-7.687788-40.205141 5.284417-42.301719 29.076086-0.285806 3.282774-0.042371 6.617513-0.042371 9.921273 0.174881 29.743634 16.264373 51.99155 35.408993 72.225831 23.951161 25.328827 54.48446 41.306994 86.228737 53.971208 28.531656 11.393275 58.349239 19.599711 87.732717 28.79048 4.500349 1.408045 9.783767 1.090261 14.6015 0.571612 9.519546-1.027303 12.420979-6.787398 8.349939-15.152726-4.817734-9.900288-9.202161-20.372188-15.89922-28.93838C426.542188 106.425939 380.915124 63.48925 330.872852 25.412067zM463.506926 118.718605c15.068184 22.491751 27.869504 41.603793 40.904067 61.044412 13.547815-19.737618 26.456063-38.542668 41.899392-61.044412L463.506926 118.718605zM764.056554 20.65729c-7.745748-17.090413-22.473763-22.755372-40.63445-16.899542-29.033315 9.360653-52.69907 27.265514-74.782098 47.163023-27.83213 25.083993-55.448206 50.539534-81.378625 77.540228-14.338279 14.929878-26.250202 32.601896-37.028894 50.381641-8.958926 14.769986-2.563262 22.955436 15.193699 23.770883 20.182316-5.421324 40.618261-10.038194 60.492786-16.422865 33.651184-10.821663 66.693582-23.560026 95.907775-43.922021 27.409416-19.102049 51.349985-41.581808 61.805896-74.894022C768.504338 51.863133 771.135754 36.296687 764.056554 20.65729zM931.623543 442.129532c-0.031978-85.218022-0.216853-170.435045-0.359756-255.642075-0.047967-30.824101-13.263008-53.631438-42.778996-64.020394-11.648103-4.108215-24.936093-4.679827-37.499575-4.806741-26.937536-0.26482-53.918243 0.33877-80.833995 1.672866-6.391666 0.317785-14.073458 3.356724-18.615379 7.77273-54.490056 52.900933-122.257909 77.688127-194.737568 91.867514-15.91421 3.112889-33.195493 3.727473-47.113857-9.465582-1.937686-1.842751-9.148797-1.229167-11.436246 0.89939-13.098119 12.250694-29.404464 11.764024-44.027549 8.428286-67.868385-15.512483-133.634596-36.879995-183.041898-89.506115-14.627483-15.586432-31.559003-10.620799-47.558555-11.764024-21.887161-1.556944-44.027949 0.603591-66.063009 1.079268-38.161526 0.805454-64.220858 26.842801-64.273822 64.887806-0.137507 91.306894-0.042371 182.612789-0.042371 273.919483-0.031579 0-0.052964 0-0.084343 0 0 91.284909 0.82584 182.58081-0.41332 273.854726-0.481673 35.314057 30.845487 67.281183 62.156258 66.275865 31.469664-1.006318 62.992091-0.116921 94.493134-0.005996 81.21014 0.28081 162.419879 0.842429 243.624623 0.815447 102.28685-0.036975 204.574299-0.54563 306.860748-0.862415 22.078031-0.074949 44.15986 0.020986 66.237891-0.333774 38.161926-0.61958 65.078677-27.382435 65.247562-66.163941C931.787432 634.732547 931.660318 538.434038 931.623543 442.129532zM801.408029 569.78778c-25.814498 22.320866-55.822952 37.388451-88.203998 46.84404-18.338566 5.358367-37.843142 7.121172-56.966177 9.111822-4.331064 0.449695-9.270714-4.876694-13.935552-7.544885 4.14519-3.414685 7.814702-7.930623 12.548492-9.964244 6.161822-2.636213 13.172069-3.292768 19.810568-4.806741 0-1.50398 0-3.006961 0-4.510942-4.912669-3.430674-9.773374-6.935298-14.739007-10.282029-34.752438-23.417123-49.147478-70.742836-32.862719-108.120494 21.745257-49.904964 66.788517-68.075645 115.740328-51.006218 41.793464 14.581114 63.077034 45.690822 58.587078 95.679929-0.614583 6.892327-1.292124 10.948577 7.275068 13.183062 12.451558 3.250796 13.579793 8.232418 5.522256 18.54043C810.482877 561.644301 805.972934 565.837458 801.408029 569.78778zM644.265972 537.025992c0.450694 8.423289 10.361975 17.947831 18.843224 18.106724 10.292022 0.190871 18.848221-8.418292 18.842225-18.95315 0-11.235382-7.384993-18.387533-18.969139-18.372543C653.505707 517.818015 643.774305 527.813239 644.265972 537.025992zM675.41885 451.828956c-12.372611 0.190871-23.755894 13.173069-23.733908 27.075643 0.020986 13.500846 12.186737 25.391784 25.533688 24.958078 12.060823-0.386738 23.502066-12.675406 23.576015-25.317835C700.884384 463.424094 689.66619 451.622096 675.41885 451.828956zM740.799322 472.19115c-20.479115 0.629573-37.887113 20.542072-37.378657 42.747018 0.518648 22.416801 21.272577 41.931371 43.593444 40.999203 20.197306-0.846426 39.708078-22.575694 39.332133-43.8051C785.927525 488.503091 766.427946 471.402685 740.799322 472.19115zM340.132974 594.405889c-4.187561 2.917022-8.365328 5.85603-10.668167 7.464939 7.454346 7.687788 18.217648 14.698035 17.185348 18.488465-3.02295 11.048509-14.421622 5.506267-22.659637 5.934976-0.550627 0.025982-1.101253-0.100932-1.65188-0.142903-39.442658-3.160857-72.453277-22.120003-103.917344-43.795307-11.626517-8.005572-21.611747-18.853218-30.898051-29.658891-8.640142-10.05918-6.316118-16.581758 6.321114-17.830911 10.625796-1.059282 10.4723-6.141836 10.451314-14.290311-0.068953-34.328725 15.115152-60.423833 44.890364-77.398324 27.938458-15.925203 56.459121-17.148373 84.958198-0.952354C393.992257 476.2474 397.079164 554.788949 340.132974 594.405889zM226.404881 540.970318c-1.38706 8.476253 9.604488 19.647679 18.31858 19.583722 8.872984-0.062957 17.026856-8.715091 17.317659-18.376541 0.344367-11.235382-5.733513-17.652032-16.613736-17.699C234.229576 524.430532 228.099133 530.619336 226.404881 540.970318zM257.663088 459.627668c-12.46295-0.062957-25.62003 13.231029-25.402777 25.682587 0.238438 14.179386 11.181819 23.803861 26.50403 23.317191 14.474187-0.455691 22.839515-9.635467 22.617066-24.820172C281.180544 469.438017 271.623623 459.696622 257.663088 459.627668zM324.175793 478.332986c-21.632733-0.105928-39.908942 17.97981-40.168166 39.760842-0.28081 22.850507 17.587476 43.031625 39.453251 42.455015 24.682265-0.651558 40.396012-16.534789 42.015913-42.477001C366.620415 499.796434 344.998075 477.210747 324.175793 478.332986zM504.781942 338.805986c-37.457604-0.603591-63.150984-16.486822-83.883327-40.692411-4.415606-5.146511-3.685102-14.687042-5.326988-22.204945 6.671477 1.228167 13.537821 1.810772 19.97046 3.801423 19.345883 6.00293 38.119555 15.269647 57.878159 18.233638 26.248603 3.928337 50.820943-5.505267 73.682443-18.922171 3.975305-2.340413 9.523543-2.001643 14.347273-2.89104-0.746494 5.125525 0.115921 11.331317-2.494309 15.216683C560.298102 319.184289 536.08272 338.414251 504.781942 338.805986zM730.496308 396.715523c-2.393377-1.619902-7.201118-1.694851-9.975237-0.434705-20.806893 9.423611-28.991344 7.793716-44.519816-10.455911l72.791447 0c0.275813 1.539956 0.550627 3.085908 0.82644 4.63186C745.034451 397.096265 740.730369 403.671807 730.496308 396.715523zM274.149311 404.736085c-3.854387-1.053286-6.872341-5.172493-10.271036-7.883655 3.711484-1.492988 7.501914-4.405013 11.128855-4.209146 11.975281 0.640566 23.888204 2.409366 35.831706 3.743462 0.031978-0.295799 0.063957-0.592598 0.100932-0.894394 1.646284-0.094936 3.314153-0.428709 4.924061-0.237839 3.726873 0.438703 7.422368 1.132232 11.133452 1.719834-3.329742 2.398374-6.659885 4.801744-9.98463 7.206114C302.887226 414.34457 288.35428 408.63744 274.149311 404.736085z"  horiz-adv-x="1024" />

    
    <glyph glyph-name="weishiyong" unicode="&#58922;" d="M564.701 33.879h-383.042c-18.163 0-33.121 14.958-33.121 33.121v667.78c0 18.163 14.958 33.121 33.121 33.121h433.789v-199.798c0-18.698 14.958-33.121 33.121-33.121h166.679v-186.978c23.504-2.138 45.945-8.015 66.781-16.564v270.32c0 9.082-3.743 17.094-9.615 23.504l-200.338 200.338c-3.206 3.206-6.946 5.344-10.684 7.476-4.271 1.604-8.549 2.672-12.819 2.672h-466.914c-55.027 0-100.435-44.875-100.435-100.435v-667.78c0-55.027 44.875-100.435 100.435-100.435h417.765c-14.958 19.766-26.711 42.738-34.721 66.781zM682.764 721.429l119.669-119.669h-119.669v119.669zM582.329 234.213h-333.891c-18.698 0-33.121-14.958-33.121-33.121s14.958-33.121 33.121-33.121h310.919c5.876 23.504 15.492 45.945 27.78 66.242-1.604 0-3.206 0-4.809 0zM248.441 367.77h333.891c18.698 0 33.121 14.958 33.121 33.121s-14.958 33.121-33.121 33.121h-333.891c-18.698 0-33.121-14.958-33.121-33.121s14.958-33.121 33.121-33.121zM248.441 568.106h200.338c18.698 0 33.121 14.958 33.121 33.121s-14.958 33.121-33.121 33.121h-200.338c-18.698 0-33.121-14.958-33.121-33.121s14.958-33.121 33.121-33.121zM792.076 323.197c-117.801 0-213.694-95.89-213.694-213.694s95.89-213.694 213.694-213.694 213.694 95.89 213.694 213.694c0 117.904-95.89 213.694-213.694 213.694zM792.076-73.508c-100.897 0-183.017 82.119-183.017 183.017s82.119 183.017 183.017 183.017c100.897 0 183.017-82.119 183.017-183.017 0-100.897-82.119-183.017-183.017-183.017zM868.348 109.507h-76.273v106.844c0 8.452-6.782 15.337-15.231 15.337s-15.231-6.889-15.231-15.337v-122.079c0-8.452 6.782-15.231 15.231-15.231h91.612c8.452 0 15.337 6.782 15.337 15.231-0.103 8.452-6.99 15.231-15.442 15.231z"  horiz-adv-x="1024" />

    
    <glyph glyph-name="man" unicode="&#58911;" d="M1061.473 381.408l-21.788 13.575-73.305-131.474v-266.604c0-34.854-30.419-62.155-67.281-62.155h-239.212c-7.972 0-14.445 6.473-14.445 14.385v25.145c0 7.942 6.473 14.385 14.445 14.385h152.722c20.918 0 38.87 16.033 38.87 35.873l-0.18 50.588 0.030 28.171-68.599 65.873c-7.942 7.613-20.079 6.953-27.092-1.498l-94.162-112.983c-7.012-8.452-18.94-8.901-26.613-1.019l-70.218 72.135c-7.673 7.852-19.75 7.552-27.002-0.719l-93.862-107.169c-2.637-3.386-6.563-5.664-11.179-5.664h-86.161c-7.972 0-14.445 6.443-14.445 14.385v345.663c0 34.883 32.067 63.145 68.090 63.145h71.387c7.823 0 14.115 6.293 14.295 14.057l0.989 60.837c0.18 7.942-6.323 14.535-14.295 14.535h-127.998c-8.002 0-14.475 6.443-14.475 14.385v38.9c0 7.942 6.503 14.385 14.475 14.385h609.27c7.972 0 14.475-6.443 14.475-14.385v-38.9c0-7.942-6.503-14.385-14.475-14.385h-136.299c-8.002 0-14.475-6.443-14.475-14.385v-60.837c0.18-7.732 6.473-14.205 14.475-14.205h81.666c17.472 0 33.385-6.353 45.373-16.663l15.524 25.865-22.207 13.817c-10.879 6.802-9.651 15.014 2.727 18.371l91.825 24.995c12.378 3.356 24.365-4.105 26.763-16.663l17.741-93.293c2.398-12.557-4.495-17.232-15.374-10.459zM659.199 524.87h-19.929c-13.396 0-24.245-6.443-24.245-14.385v0-60.837c0.27-7.732 10.85-14.205 24.215-14.205h18.311c13.097 0 23.675 6.293 23.945 14.055l1.678 60.837c0 7.942-10.58 14.535-23.975 14.535zM816.597 382.546h-336.672c-19.929-0.989-32.876-16.033-32.876-34.854v-148.886l88.169 90.896c7.642 7.882 20.019 7.853 27.631-0.090l72.885-76.031c7.193-7.492 18.311-7.012 24.814 1.079l95.362 118.377c6.863 8.572 18.521 8.961 26.013 0.929l67.85-72.885 1.767 2.937 0.090 83.674c0 19.809-13.276 34.854-35.034 34.854zM953.226 687.181h-66.651c-8.302 0-14.955-6.653-14.955-14.955v-33.895c0-8.332-6.653-14.983-14.955-14.983h-114.002c-8.302 0-14.985 6.653-14.985 14.983v33.895c0 8.302-6.653 14.955-14.925 14.955h-126.319c-8.302 0-14.955-6.653-14.955-14.955v-33.895c0-8.332-6.653-14.983-14.983-14.983h-114.991c-8.302 0-14.955 6.653-14.955 14.983v33.895c0 8.302-6.653 14.955-14.955 14.955h-66.622c-8.302 0-14.985 6.653-14.985 14.983v52.686c0 8.332 6.653 14.983 14.955 14.983h66.651c8.272 0 14.925 6.653 14.925 14.985v33.895c0 8.302 6.653 14.955 14.983 14.955h114.991c8.302 0 14.955-6.653 14.955-14.955v-33.895c0-8.332 6.653-14.985 14.955-14.985h126.319c8.302 0 14.955 6.653 14.955 14.985v33.865c0 7.522 5.424 13.577 12.557 14.745 0.809 0.119 1.588 0.24 2.427 0.24h114.002c5.154 0 9.651-2.577 12.347-6.473 1.648-2.427 2.608-5.334 2.608-8.512v-33.865c0-8.332 6.653-14.985 14.955-14.985h66.651c8.302 0 14.955-6.653 14.955-14.983v-52.716c0-8.302-6.653-14.955-14.955-14.955zM194.291 396.542c-46.751 0-84.633 37.762-84.633 84.333 0 46.602 37.881 84.363 84.633 84.363 46.751 0 84.663-37.762 84.663-84.363 0-46.571-37.911-84.333-84.663-84.333zM160.334 614.087c-2.637-0.24-5.274-0.389-7.972-0.389-46.722 0-84.633 37.762-84.633 84.333 0 46.602 37.911 84.363 84.633 84.363 46.751 0 84.663-37.792 84.663-84.363 0-10.25-1.918-19.989-5.274-29.070-11.029-29.849-38.451-51.787-71.415-54.874zM133.423 293.269c0.989 6.923 6.953 12.047 14.055 12.047h107.529c8.871 0 15.644-8.182 13.996-16.842-14.655-77.649-31.318-162.641-47.111-237.055-8.332-39.229-16.423-75.612-23.826-106.27-1.588-6.443-7.223-10.939-13.845-10.939h-108.007c-9.351 0-16.123 8.841-13.726 18.011 3.057 11.299 5.964 22.447 8.841 33.595 26.523 102.585 45.523 200.074 62.095 307.452z"  horiz-adv-x="1156" />

    
    <glyph glyph-name="quan1" unicode="&#58965;" d="M588.3904 420.2496 435.6096 420.2496c-27.3408-35.7376-62.2592-69.632-104.7552-101.5808 15.2576-1.024 33.8944-1.536 55.9104-1.536l233.984 0c38.2976 0 64.1024 0.8192 77.2096 2.3552C668.9792 339.8656 632.5248 373.4528 588.3904 420.2496zM827.0848 896 196.9152 896C88.1664 896 0 807.8336 0 699.0848l0-630.1696C0-39.8336 88.1664-128 196.9152-128l630.1696 0c108.7488 0 196.9152 88.1664 196.9152 196.9152L1024 699.0848C1024 807.8336 935.8336 896 827.0848 896zM843.5712 233.5744c-53.0432 25.7024-100.352 53.248-141.824 82.7392-1.024-5.7344-2.3552-23.1424-3.8912-52.0192-4.7104-97.6896-13.4144-159.3344-26.0096-185.1392-9.9328-20.992-34.9184-31.5392-74.8544-31.5392-26.2144 0-58.7776 1.536-97.6896 4.7104-2.1504 18.432-5.8368 35.7376-11.0592 52.0192 43.6224-6.3488 79.5648-9.4208 107.9296-9.4208 20.992 0 33.5872 10.752 37.7856 32.256 7.3728 35.7376 12.288 84.5824 14.9504 146.5344L483.6352 273.7152c-13.6192-62.464-36.7616-111.104-69.3248-145.7152-38.912-41.984-97.3824-76.0832-175.616-102.4-9.9328 18.944-20.992 33.8944-33.0752 44.8512 72.4992 19.968 127.5904 47.8208 165.376 83.456 25.1904 23.6544 42.2912 51.712 51.2 84.2752 2.048 6.3488 5.2224 18.1248 9.4208 35.4304l-40.1408 0c-33.5872 0-60.6208-1.536-81.1008-4.7104l0 34.6112c-33.5872-22.016-76.9024-45.9776-129.9456-71.68-6.8608 14.1312-18.432 28.0576-34.6112 41.7792 109.2608 44.6464 186.6752 93.4912 232.3456 146.5344L249.6512 420.1472c-35.2256 0-63.5904-1.536-85.0944-4.7104l0 54.3744c20.48-3.1744 48.8448-4.7104 85.0944-4.7104l161.4848 0c15.7696 27.3408 28.5696 58.2656 38.6048 92.9792L302.4896 558.08c-36.2496 0-64.6144-1.3312-85.0944-3.8912l0 52.0192c16.7936-3.1744 45.1584-4.7104 85.0944-4.7104l32.256 0c-15.7696 32.0512-37.2736 65.8432-64.6144 101.5808l46.4896 18.944c25.7024-36.2496 49.0496-76.3904 70.144-120.5248l73.216 0c3.1744 20.992 6.5536 46.1824 10.24 75.5712 3.6864 31.5392 5.5296 52.736 5.5296 63.7952l0 7.0656 57.5488-4.7104c-3.6864-13.1072-6.3488-24.1664-7.8848-33.0752l-17.3056-108.7488 96.8704 0c34.6112 41.984 61.952 82.7392 81.92 122.0608l50.3808-18.944c-27.8528-43.1104-53.0432-77.4144-75.5712-103.2192l64.6144 0c39.936 0 68.8128 1.536 86.6304 4.7104l0-52.0192c-20.992 2.6624-49.8688 3.8912-86.6304 3.8912L498.5856 557.8752c-9.9328-36.2496-21.504-67.2768-34.6112-92.9792l309.5552 0c40.448 0 69.5296 1.536 87.4496 4.7104l0-54.3744c-25.7024 3.1744-54.8864 4.7104-87.4496 4.7104L644.3008 419.9424c35.7376-32.0512 64.6144-55.7056 86.6304-70.8608C770.3552 323.584 820.224 301.056 880.64 281.6 867.0208 269.0048 854.6304 252.928 843.5712 233.5744z"  horiz-adv-x="1024" />

    
    <glyph glyph-name="drag" unicode="&#58974;" d="M798.194 440.869h-572.388c-17.372 0-31.428 14.056-31.428 31.428 0 17.371 14.056 31.428 31.428 31.428h572.388c17.371 0 31.428-14.056 31.428-31.428-0-17.372-14.057-31.428-31.428-31.428zM668.616 609.301c-8.041 0-16.082 3.069-22.22 9.208l-156.617 156.586c-12.277 12.277-12.277 32.165 0 44.441s32.165 12.277 44.441 0l156.617-156.586c12.277-12.277 12.277-32.165 0-44.441-6.139-6.139-14.18-9.208-22.221-9.208zM355.383 609.301c-8.041 0-16.082 3.069-22.22 9.208-12.277 12.277-12.277 32.165 0 44.441l156.617 156.586c12.277 12.277 32.165 12.277 44.441 0s12.277-32.165 0-44.441l-156.617-156.586c-6.139-6.139-14.18-9.208-22.221-9.208zM512-64.736c-8.041 0-16.082 3.069-22.22 9.208l-156.617 156.648c-12.277 12.277-12.277 32.165 0 44.441 12.277 12.277 32.165 12.277 44.441 0l156.617-156.648c12.277-12.277 12.277-32.165 0-44.441-6.139-6.139-14.18-9.208-22.221-9.208zM512-64.736c-8.041 0-16.082 3.069-22.22 9.208-12.277 12.277-12.277 32.165 0 44.441l156.617 156.648c12.277 12.277 32.165 12.277 44.441 0 12.277-12.277 12.277-32.165 0-44.441l-156.617-156.648c-6.139-6.139-14.18-9.208-22.221-9.208zM798.194 276.917h-572.388c-17.372 0-31.428 14.056-31.428 31.428s14.056 31.428 31.428 31.428h572.388c17.371 0 31.428-14.056 31.428-31.428s-14.057-31.428-31.428-31.428z"  horiz-adv-x="1024" />

    
    <glyph glyph-name="zijin" unicode="&#58894;" d="M826.667 720.273h-56.872v-52.487h28.422v-419.904h-227.43v-209.953h-341.17v629.857h28.42v52.488h-56.869c-15.636 0-28.425-11.79-28.425-26.245v-682.345c0-14.453 12.789-26.243 28.425-26.243h447.813l206.108 190.268v518.319c0 14.454-12.789 26.245-28.424 26.245v0 0M627.634 37.929v157.463h170.586l-170.586-157.463M741.373 720.273h-113.738v52.489c0 28.856-25.578 52.487-56.846 52.487h-113.74c-31.267 0-56.846-23.63-56.846-52.487v-52.489h-113.738v-104.976h454.91v104.976M570.789 720.273h-113.74v52.386c0.025 0.052 0.077 0.102 0.102 0.102h113.511c0.051 0 0.102-0.051 0.128-0.102v-52.386M556.386 393.196h69.839l0.13 42.544h-46.057l75.144 127.788h-78.529l-51.744-105.797-21.811-0.052-52.948 105.848h-78.529l74.734-127.786h-46.618v-42.544h69.326l6.763-12.968v-20.604h-76.091v-42.547h76.091v-61.763h73.658v61.763h76.607v42.547h-76.581v20.604l6.637 12.968h-0.023v-0.001M556.386 393.196z"  horiz-adv-x="1024" />

    
    <glyph glyph-name="user" unicode="&#58891;" d="M695.55999969 578.59999969c0 107.08000031-87.52000031 193.87999969-195.48 193.88000062-107.95999969 0-195.48-86.80000031-195.48-193.88000062 0-107.08000031 87.52000031-193.87999969 195.48-193.87999969 108 0 195.48 86.80000031 195.48 193.87999969m273.80000062-615c1.27999969-4.15999969 2.16-8.52 2.16-13.11999938 0-25.2-20.56000031-45.67999969-45.96-45.68000062a45.79999969 45.79999969 0 0 0-45.92000062 45.68000062v0.15999938h-1.2c-11.95999969 191.16-171.31999969 342.64000031-366.72 342.64000031-195.43999969 0-354.79999969-151.48000031-366.79999969-342.64000031h-1.03999969v-0.15999938c0-25.2-20.56000031-45.67999969-45.92000062-45.68000062A45.79999969 45.79999969 0 0 0 51.99999969-49.51999968999996c0 4.32 0.79999969 8.4 1.92 12.39999938 13.36000031 173.47999969 123.64000031 319.92 277.64000062 385.2C260 399.96 213.2 483.76000031 213.2 578.59999969 213.2 736.2 341.79999969 864 500.40000031 864c158.64 0 287.20000031-127.8 287.19999938-285.40000031a283.99999969 283.99999969 0 0 0-110.79999938-224.91999938c161.44000031-61.87999969 278.52-211.44 292.56-390.08000062"  horiz-adv-x="1024" />

    
    <glyph glyph-name="fasong" unicode="&#58890;" d="M1004.2570666666666 795.1296c-1.6650666666666665 2.8394666666666666-8.192 12.396799999999999-23.3472 16.27413333333333-19.3056 4.8608-44.263466666666666-1.8026666666666666-73.07199999999999-19.36L49.533866666666654 337.9061333333334c-7.3728-3.3855999999999997-31.3472-16.11093333333333-30.8288-38.747733333333336 0.38186666666666663-15.128533333333333 11.031466666666667-26.9792 32.90453333333333-35.71733333333333l271.34613333333334-89.7024 40.522666666666666-16.62933333333333 442.53226666666666 435.9786666666667-343.7909333333333-476.4746666666667 55.86986666666667-22.910933333333332 272.6293333333333-90.46613333333333c3.9872-1.8570666666666666 12.588799999999999-5.215999999999999 23.01973333333333-5.215999999999999 6.5258666666666665 0 13.762133333333333 1.3109333333333335 21.053866666666664 5.079466666666666 18.240000000000002 9.447466666666665 29.21813333333333 30.446933333333334 32.38506666666667 60.70186666666667l139.42826666666667 717.1829333333334a20.325333333333333 20.325333333333333 0 0 1-2.3487999999999998 14.144zM482.56320000000005-106.37333333333333c-2.9493333333333336-0.38186666666666663-6.034133333333333 0-8.901333333333334 1.1743999999999999-6.690133333333334 2.7306666666666666-11.0592 9.229866666666666-11.032533333333333 16.438399999999998l-0.08213333333333334 136.096c0 5.461333333333333 2.485333333333333 10.5952 6.8 13.981866666666667a17.791999999999998 17.791999999999998 0 0 0 15.2096 3.2490666666666663l107.45173333333334-26.569599999999998a17.685333333333332 17.685333333333332 0 0 0 12.8064-12.369066666666667 17.709866666666667 17.709866666666667 0 0 0-4.395733333333334-17.28533333333333l-107.37066666666666-109.52746666666667a17.553066666666666 17.553066666666666 0 0 0-10.485333333333333-5.188266666666666z"  horiz-adv-x="1024" />

    
    <glyph glyph-name="pintuan" unicode="&#58927;" d="M982.70746548 177.23634725c-11.21029689 50.78069097-39.35679525 96.89740325-79.49638163 130.14357334a231.79112297 231.79112297 0 0 1-41.12748088 27.22171259c52.84750222 34.94403792 87.78425837 94.89005985 87.78425836 162.84967823 0 103.56629808-81.12385897 188.50702222-183.16219733 194.70260148 0.01699082-0.08374045 0.01456355-0.18204445 0.02669985-0.26699852-15.47499141-0.71240059-27.80304118-13.4797843-27.80304118-29.12953837 0-15.67038578 12.36445867-28.45111941 27.86979081-29.12953837v-0.10679941c69.72302222-6.11790697 124.59971318-64.78719052 124.59971319-136.06972681 0-75.33970015-61.29557808-136.63285097-136.63527822-136.63285096-3.91516918 0-7.78543408 0.19539437-11.61443556 0.53156977a30.23758222 30.23758222 0 0 1-4.85937304 0.39685689c-16.59759882 0-30.05553778-13.4555117-30.05553777-30.05796503 0-16.59759882 13.45429808-30.05553778 30.05553777-30.05553778 0.57526045 0 1.14566637 0.02184533 1.71364504 0.0533997v-0.01941808c4.87757748 0.42841125 9.797632 0.68327348 14.76137719 0.68327349 79.94057008 0 150.07986725-55.27840237 169.61444977-132.49680119-7.12521955-3.47462163-21.6475117-8.90197333-49.26850844-13.93246814-9.58767408-1.74519941-19.90959408-3.26345008-30.75944296-4.54261571-15.77111703-0.39078875-28.43534222-13.28196267-28.43534223-29.14652919 0-16.10729245 13.05622755-29.16230637 29.16109275-29.16230636 0.16869452 0 0.33374815 0.00970903 0.50122903 0.01334993l-0.00364089-0.01334993c0.10558578 0.00606815 0.21117155 0.01577718 0.31311644 0.02184533a28.21931615 28.21931615 0 0 1 2.35444148 0.1553446c18.58066963 1.29615645 40.38716682 5.41764267 55.4228243 8.84493273 21.06496948 4.80111882 38.06670697 10.64231822 50.53189689 17.35975822 25.77870697 13.893632 31.19270875 31.37718045 31.19270875 43.60207171 0.00242725 4.77077808-0.89929955 9.52577897-2.67969422 14.18733037h-0.00242727v-0.00485453z m-950.173696 0c11.21151052 50.78069097 39.35922252 96.89740325 79.49759527 130.14357334a231.6903917 231.6903917 0 0 0 41.1286945 27.22171259c-52.84750222 34.94403792-87.78304475 94.89005985-87.78304473 162.84967823 0 103.56629808 81.12385897 188.50702222 183.15977007 194.70260148-0.01577718-0.08374045-0.01334992-0.18204445-0.02669984-0.26699852 15.47499141-0.71240059 27.80304118-13.4797843 27.80304117-29.12953837 0-15.67038578-12.3656723-28.45111941-27.86979081-29.12953837v-0.10679941c-69.72180859-6.11790697-124.59849955-64.78719052-124.59849956-136.06972681 0-75.33970015 61.29436445-136.63285097 136.63285097-136.63285096 3.91759645 0 7.7866477 0.19539437 11.61686281 0.53156977a30.0033517 30.0033517 0 0 0 4.85694578 0.39685689c16.6012397 0 30.05917867-13.4555117 30.05917867-30.05796503 0-16.59759882-13.45915259-30.05553778-30.05796503-30.05553778-0.57526045 0-1.14566637 0.02184533-1.71364505 0.0533997v-0.01941808c-4.87636385 0.42841125-9.79520475 0.68327348-14.76259081 0.68327349-79.93935645 0-150.07744-55.27840237-169.61323614-132.49680119 7.12764682-3.47462163 21.64872533-8.90197333 49.26850843-13.93246814 9.59010133-1.74519941 19.91202133-3.26345008 30.76308385-4.54261571 15.76990341-0.39078875 28.43534222-13.28196267 28.43534222-29.14652919 0-16.10729245-13.05622755-29.16230637-29.16473362-29.16230636-0.16626725 0-0.33132089 0.00970903-0.49880178 0.01334993l0.00242726-0.01334993-0.31433008 0.02184533a29.58707675 29.58707675 0 0 0-2.35686873 0.1553446c-18.579456 1.29615645-40.38473955 5.41764267-55.42039705 8.84493273-21.06496948 4.80111882-38.06670697 10.64231822-50.53068325 17.35975822-25.78113422 13.893632-31.19270875 31.37718045-31.19270875 43.60207171-0.00121363 4.76713718 0.89808592 9.52092445 2.67969423 14.18247584zM686.48717275 284.81126400000005c-17.97992297 14.89002192-37.584896 27.34550282-58.50422993 37.19532089 16.32453215 9.72724148 31.55194311 21.54678045 45.33634843 35.33118578 43.5608083 43.55959467 67.54941155 101.47521422 67.54941157 163.07662696 0 61.60262637-23.98860325 119.5170323-67.54941157 163.07662696-43.55838103 43.55959467-101.47278697 67.54819792-163.07662695 67.54819793-61.60141275 0-119.5170323-23.98860325-163.0778406-67.54819793-43.55838103-43.55959467-67.5469843-101.47521422-67.54698429-163.07784059s23.98860325-119.51581867 67.54819792-163.07541333c13.78561897-13.78561897 29.01424355-25.60273067 45.33634845-35.33118578-20.91690667-9.85224533-40.52430697-22.30651259-58.50180267-37.19532089-47.7878803-39.57767585-81.26464-94.52718459-94.50776652-155.0132717-1.99763437-5.07904-3.00616059-10.24546133-3.00616059-15.40824178 0-13.13389985 5.99897125-32.02161778 34.58358992-47.42864593 14.6351597-7.88737897 34.7462163-14.77715437 59.77368653-20.48242726 48.25634133-10.9979117 111.96704237-17.05635082 179.4011591-17.05635081 67.43047585 0 131.14239052 6.05722548 179.39994548 17.05756445 25.02504297 5.70405925 45.13488592 12.5950483 59.77490015 20.48121362 28.58219141 15.40702815 34.5823763 34.29474608 34.5823763 47.42864593 0 5.1652077-1.01216711 10.32677452-3.00858785 15.40824178-13.24434015 60.489728-46.71988622 115.43923675-94.50776652 155.0132717h0.00121364zM338.08444682 520.4143976299999c0 94.92525511 77.23053511 172.15579022 172.15579021 172.15579022 94.92646875 0 172.15943111-77.23053511 172.15943112-172.15579022 0-94.93010963-77.22932148-172.15821748-172.15579023-172.15821748s-172.15821748 77.22932148-172.15821747 172.15821748h-0.00121363zM660.18417778 100.07862992000003c-41.87143585-7.86067911-95.12186311-12.18848237-149.94272711-12.18848237-54.81965037 0-108.06643675 4.32780325-149.94029985 12.18848237-36.03387733 6.76355792-55.02354015 14.55384652-63.23010371 19.2918566 22.675456 99.02004148 111.59324445 170.41665897 213.17161719 170.41665896 101.57958637 0 190.49737482-71.39661748 213.17040355-170.41787259-8.20292267-4.7392237-27.19501275-12.52708503-63.22646282-19.29185659l-0.00242725 0.00121362z"  horiz-adv-x="1024" />

    
    <glyph glyph-name="daishouhuo1" unicode="&#59341;" d="M373.02586774 698.83539025c14.7458017-46.6613731 10.50385868-97.36269152-11.31184802-141.19610259l150.48797795-55.34725679 194.32138905 71.50703947-333.49751898 125.03631991zM764.49660784 595.21078169l226.23696046 83.02088519c-8.07989204 6.46391335-17.16976971 11.5138457-27.06763675 14.54380401L532.19972802 827.50766151c-15.7557887 4.84793466-32.72356075 4.84793466-48.47934808-0.20199768l-157.15388899-49.89332908c-0.60599166-0.20199767-1.00998702-0.40399397-1.6159773-0.60599166 7.87789436-7.67589668 14.94779937-16.1597827 21.41171134-25.04766407l418.13438285-156.54789733zM491.80027198-58.65443327000003V466.74050811l-152.70994831 56.15524614c-65.85111548-81.00091114-184.82751739-93.1207485-265.82842851-27.26963441a188.55436673 188.55436673 0 0 0-68.67907749 126.65229858c-0.60599166-2.01997266-1.00998702-4.24194301-1.00998701-6.46391336v-391.67273777c0-30.09759503 16.76577435-57.77122342 43.6314134-71.70903577l427.62825588-222.19701513c11.31184801-5.8579217 16.96777203 0.20199767 16.96777204 11.10985034zM1015.17523932 644.2961228L532.19972802 466.74050811v-525.39494138c0-10.90785404 5.65592402-17.16976971 17.16976972-11.10985034L976.79575594 152.63472781999997c26.86563906 13.93781235 43.63141341 41.61144075 43.42941573 71.70903715V615.81450506c0.20199767 9.69586933-1.61597869 19.39174006-5.04993235 28.48161774zM192.64229104 493.40414948c82.21289585 0 148.87199927 66.65910481 148.87199929 148.87200066s-66.65910481 148.87199927-148.87199929 148.87199926-148.87199927-66.65910481-148.87200065-148.87199926 66.65910481-148.87199927 148.87200065-148.87200066z m-20.1997294 255.9305615c0 11.10985034 9.08987767 20.19972802 20.1997294 20.19972942s20.19972802-9.08987767 20.19972802-20.19972942v-90.29278649h51.10531378c11.10985034 0 20.19972802-9.08987767 20.19972803-20.19972802s-9.08987767-20.19972802-20.19972803-20.19972939h-91.5047712v130.6922439z"  horiz-adv-x="1024" />

    
    <glyph glyph-name="kefu1" unicode="&#58938;" d="M512 817.03822222c-189.32622222 0-348.04622222-138.58133333-392.41955555-325.29066667-47.33155555-18.432-95.91466667-48.46933333-95.91466667-136.41955555 0-114.46044445 62.00888889-134.37155555 120.14933333-143.58755555h64.512c-26.73777778 52.33777778-41.52888889 111.84355555-41.52888889 174.42133333 0 204.11733333 154.73777778 369.32266667 345.088 369.32266667 190.23644445 0 345.088-165.20533333 345.088-369.32266667 0-137.44355555-70.08711111-256.45511111-174.53511111-320.05688889-3.98222222 1.024-8.87466667 2.048-13.76711111 2.048-32.54044445 0-59.16444445-27.648-59.16444445-61.55377778 0-33.792 26.624-61.55377778 59.16444445-61.55377778s59.16444445 27.648 59.16444445 61.55377778c0 5.12-1.024 10.24-1.93422223 14.336 68.03911111 46.19377778 123.22133333 112.86755555 155.76177778 191.82933334 58.25422222 10.24 118.55644445 43.80444445 118.55644445 142.56355555 0 119.23911111-49.60711111 118.10133333-95.91466667 136.53333333-44.25955555 186.59555555-202.97955555 325.17688889-392.30577778 325.17688889zM340.65066667 490.04088889c-3.75466667-5.68888889-7.85066667-11.264-11.60533334-16.61155556H441.45777778v-23.89333333c-11.264-16.27022222-27.648-30.72-49.60711111-43.34933333 32.08533333-11.264 67.47022222-17.86311111 106.496-20.13866667l-6.59911112-26.96533333c-49.60711111 2.84444445-93.52533333 13.19822222-131.86844444 31.06133333-36.40888889-15.36-82.944-27.648-138.80888889-37.09155555l-11.264 26.39644444c47.78666667 6.94044445 87.60888889 16.04266667 119.69422223 26.96533333-13.19822222 8.192-25.14488889 17.29422222-36.4088889 26.96533333-11.60533333-10.01244445-23.89333333-19.456-36.75022222-27.648l-19.11466666 22.86933334c28.89955555 16.27022222 53.70311111 38.57066667 74.41066666 67.47022222l29.01333334-6.03022222z m144.72533333-26.96533334h-30.15111111v36.75022223h-200.24888889v-36.75022223h-30.15111111v63.37422223h112.07111111c-3.18577778 6.25777778-6.25777778 12.51555555-10.01244445 18.20444444l32.99555556 5.00622223c3.18577778-6.94044445 6.25777778-14.44977778 9.44355556-23.21066667h116.16711111v-63.37422223z m-35.15733333-206.2791111H420.97777778v11.94666666H294.45688889v-11.94666666h-28.89955556v102.05866666h184.66133334v-102.05866666z m-29.12711112 38.912v36.40888888H294.45688889v-36.40888888h126.63466666z m-15.70133333 152.23466666h-91.02222222c14.44977778-11.264 29.80977778-20.70755555 46.42133333-28.89955556 18.20444445 8.87466667 33.22311111 18.31822222 44.60088889 28.89955556zM549.09155555 257.024l-22.64177777 20.36622222c12.51555555 27.30666667 18.88711111 62.23644445 19.11466667 104.56177778V536.23466667h97.62133333V290.70222221999995c0-21.27644445-9.78488889-31.97155555-28.89955556-31.97155555h-25.14488889l-7.168 26.39644444c8.76088889-0.91022222 16.61155555-1.59288889 24.23466667-1.59288889 6.59911111 0 10.01244445 5.68888889 10.01244445 16.61155556v63.14666667h-44.6008889c-2.16177778-42.78044445-9.67111111-78.27911111-22.528-106.26844445z m67.1288889 252.24533333H572.30222222v-46.53511111h43.91822223v46.53511111zM572.30222222 390.25777778h43.91822223v45.85244444H572.30222222v-45.85244444z m120.26311111-132.89244445h-27.98933333V536.23466667h132.20977778c0-40.84622222-1.93422222-67.81155555-5.68888889-81.35111112-3.75466667-13.19822222-15.70133333-19.79733333-35.84-19.79733333h-26.39644444l-7.85066667 25.14488889c5.00622222 0 11.94666667-0.34133333 20.70755555-0.34133333 6.59911111 0 11.60533333 0.68266667 14.79111112 1.59288889 3.18577778 0.91022222 5.68888889 3.75466667 7.50933333 8.192 1.93422222 5.34755555 3.18577778 18.54577778 3.86844444 39.59466666h-75.43466667v-88.51911111H798.72v-25.14488889c-5.57511111-30.83377778-15.01866667-57.11644445-28.21688889-78.848 12.85688889-12.288 27.98933333-23.21066667 44.94222222-33.33688888l-14.79111111-25.1448889c-17.86311111 10.69511111-33.56444445 22.64177778-46.76266667 35.49866667-12.85688889-14.44977778-28.21688889-26.39644445-45.85244444-35.84l-15.36 23.21066667v-23.77955556z m0 24.80355556c16.27022222 8.76088889 30.15111111 20.13866667 41.75644445 33.22311111-18.20444445 23.21066667-30.72 49.60711111-37.66044445 78.848h-4.096v-112.07111111z m58.02666667 56.54755556c9.44355555 16.27022222 16.61155555 34.816 21.61777778 55.63733333h-50.176c6.37155555-20.48 15.70133333-39.02577778 28.55822222-55.63733333z"  horiz-adv-x="1024" />

    
    <glyph glyph-name="iconfontdapaijiadao" unicode="&#58880;" d="M28.89066667 501.83146667c0-26.03093333 21.10186667-47.1328 47.1328-47.1328s47.1328 21.10186667 47.1328 47.1328c0 26.03093333-21.10186667 47.1328-47.1328 47.1328-26.03093333 0-47.1328-21.10186667-47.1328-47.1328zM453.0848 690.36266667c0-26.03093333 21.10186667-47.1328 47.1328-47.1328s47.1328 21.10186667 47.1328 47.1328c0 26.03093333-21.10186667 47.1328-47.1328 47.1328-26.03093333 0-47.1328-21.10186667-47.1328-47.1328zM790.90773333 54.188800000000015c20.73813333 62.25493333 106.51946667 319.52106667 114.10133334 342.34026667s-4.1632 46.3872-32.7968 29.69386666-124.27413333-67.792-186.4096-101.6896c-6.87466667-3.7312-28.2784 2.9856-32.13013334 10.0928-42.144 78.23893333-83.54133333 156.67733333-126.3936 234.72106667-14.6496 26.7072-41.28106667 19.48053333-48.4288 4.0448-30.98986667-67.12533333-85.97866667-186.29226667-109.22986666-236.64533333-6.7552-14.68906667-27.49333333-14.41493333-35.86026667-9.86026667-60.36906667 32.9536-120.77866667 65.86666667-181.14773333 98.82026667-17.71306667 9.66186667-41.28106667-6.40213333-32.992-31.344 32.71786667-98.19413333 91.94773333-275.84533333 113.31626666-339.984 5.1072-15.08373333 17.36-23.88053333 31.6192-23.88053334h494.8928c16.29866667 0 26.47253333 8.68053333 31.46026667 23.68426667zM900.8448 501.83146667c0-26.03093333 21.10186667-47.1328 47.1328-47.1328s47.1328 21.10186667 47.1328 47.1328c0 26.03093333-21.10186667 47.1328-47.1328 47.1328-26.03093333 0-47.1328-21.10186667-47.1328-47.1328z"  horiz-adv-x="1024" />

    
    </font>
</defs>
</svg>
